<?xml version="1.0" encoding="UTF-8" standalone="no"?>
<!-- Created with Inkscape (http://www.inkscape.org/) -->

<svg
   version="1.1"
   id="svg1"
   width="1248"
   height="832"
   viewBox="0 0 1248 832"
   sodipodi:docname="volcan.svg"
   inkscape:version="1.4.2 (f4327f4, 2025-05-13)"
   xmlns:inkscape="http://www.inkscape.org/namespaces/inkscape"
   xmlns:sodipodi="http://sodipodi.sourceforge.net/DTD/sodipodi-0.dtd"
   xmlns="http://www.w3.org/2000/svg"
   xmlns:svg="http://www.w3.org/2000/svg">
  <defs
     id="defs1" />
  <sodipodi:namedview
     id="namedview1"
     pagecolor="#ffffff"
     bordercolor="#000000"
     borderopacity="0.25"
     inkscape:showpageshadow="2"
     inkscape:pageopacity="0.0"
     inkscape:pagecheckerboard="0"
     inkscape:deskcolor="#d1d1d1"
     inkscape:zoom="1.4026442"
     inkscape:cx="623.82177"
     inkscape:cy="416"
     inkscape:window-width="2560"
     inkscape:window-height="1369"
     inkscape:window-x="-8"
     inkscape:window-y="-8"
     inkscape:window-maximized="1"
     inkscape:current-layer="g1" />
  <g
     inkscape:groupmode="layer"
     inkscape:label="Image"
     id="g1">
    <path
       style="fill:#000000"
       d="m 0,637.10925 c 0,-1.3303 39.058734,-1.50788 345.25,-1.56965 288.39654,-0.0582 344.50897,-0.28796 340.75,-1.39538 -2.475,-0.72915 -11.25,-3.22849 -19.5,-5.5541 -8.25,-2.32561 -19.05,-5.46668 -24,-6.98017 -8.68931,-2.65679 -14.32426,-3.40786 -45.5,-6.06459 -14.24,-1.2135 -24.521,-3.26546 -44.5,-8.88164 -25.23252,-7.09297 -31.89488,-8.85243 -40,-10.5636 -4.4,-0.92894 -19.03791,-4.31991 -32.52869,-7.53548 -59.61116,-14.20855 -71.33761,-15.41102 -142.50872,-14.6134 -34.04098,0.3815 -60.4994,1.15568 -71.5,2.0921 -9.60442,0.81757 -24.43759,1.99024 -32.96259,2.60593 -8.525,0.61569 -20,1.9768 -25.5,3.02469 -5.5,1.04789 -16.975,2.83397 -25.5,3.96908 -8.525,1.13511 -22.25,3.1464 -30.5,4.46955 -8.25,1.32314 -21.525,3.34026 -29.5,4.4825 -7.975,1.14223 -16.75,2.71163 -19.5,3.48755 -13.237792,3.73507 -37.287873,7.36201 -63,9.50088 -12.222229,1.01671 -37.0995149,4.6642 -38.75,5.68149 C 0.3375,613.51926 0,613.09733 0,612.3274 c 0,-2.40013 12.678536,-4.59886 44.5,-7.71727 25.376851,-2.48685 37.039799,-4.23269 53.5,-8.00847 6.875,-1.57704 19.025,-3.80541 27,-4.95193 24.13752,-3.47012 36.58105,-5.70303 35,-6.28053 -0.825,-0.30134 -7.60005,-1.96115 -15.05567,-3.68847 -29.96315,-6.94185 -64.870283,-8.71962 -100.97483,-5.14251 -10.708225,1.06093 -24.982,2.22541 -31.7195,2.58773 C 1.450335,579.70672 0,579.59673 0,578.19698 c 0,-1.30123 1.2811979,-1.58773 7.1000619,-1.58773 7.3018671,0 7.4337011,-0.0452 26.8999381,-9.2221 3.396416,-1.60116 2.945086,-1.65188 -15.25,-1.71395 C 2.0205722,565.6161 0,565.43149 0,563.95975 c 0,-1.49836 1.9012575,-1.59619 20.75,-1.06774 21.88139,0.61348 28.501999,-0.0945 49.25,-5.26634 4.125,-1.02825 10.2,-2.11628 13.5,-2.41786 3.3,-0.30158 8.209019,-1.23462 10.908931,-2.07344 2.79706,-0.869 8.615689,-1.52512 13.525089,-1.52512 6.24258,0 12.05274,-0.84592 21.09107,-3.07072 7.4613,-1.83661 17.29765,-3.42727 24.47491,-3.95788 6.6,-0.48794 14.25,-1.58977 17,-2.44851 2.75,-0.85875 10.4,-2.24601 17,-3.08282 6.6,-0.83681 14.475,-2.16106 17.5,-2.94279 3.025,-0.78172 10.01694,-2.0995 15.53765,-2.92839 10.80788,-1.62272 30.856,-7.69283 38.96235,-11.7969 2.75,-1.39227 8.6,-3.50779 13,-4.70116 5.33482,-1.44691 10.83175,-3.93636 16.5,-7.47253 4.675,-2.91653 12.1,-7.25319 16.5,-9.63704 4.4,-2.38384 10.8442,-6.06489 14.32044,-8.18009 3.47624,-2.11521 10.45124,-5.69552 15.5,-7.95624 5.04876,-2.26072 12.55456,-6.0127 16.67956,-8.33773 4.125,-2.32503 14.475,-7.8316 23,-12.23682 8.525,-4.40523 17.3,-8.9406 19.5,-10.07862 2.2,-1.13801 10.075,-4.99369 17.5,-8.56819 7.425,-3.57449 18,-9.51293 23.5,-13.19653 5.5,-3.6836 15.625,-9.7197 22.5,-13.41357 6.875,-3.69386 20.67792,-12.06602 30.67315,-18.60479 9.99524,-6.53877 22.59524,-14.7181 28,-18.17629 5.40477,-3.45818 13.87685,-9.68019 18.82685,-13.82668 12.58996,-10.5463 20.86704,-15.83751 33.81172,-21.6145 11.92415,-5.32154 17.87083,-6.4741 35.39653,-6.86037 7.69175,-0.16953 9.78906,-0.86742 7.27544,-2.42092 -0.55897,-0.34546 -0.77663,-1.01593 -0.48369,-1.48992 0.29294,-0.47399 0.0753,-1.14446 -0.48369,-1.48992 C 610.45734,332.77387 610,333.01592 610,333.65722 c 0,0.725 -0.66188,0.88684 -1.75,0.42789 -0.9625,-0.40597 -4.152,-1.14155 -7.08778,-1.63463 -2.93579,-0.49308 -7.53333,-2.00907 -10.21676,-3.36887 -5.26122,-2.66606 -10.1949,-3.08611 -16.30868,-1.38852 -5.25222,1.45837 -12.92013,0.24388 -16.87593,-2.6729 -7.07708,-5.21823 -11.6476,-6.71051 -18.7334,-6.11646 -3.62953,0.30429 -7.82241,1.11061 -9.31752,1.79182 -2.89669,1.31982 -5.13914,0.41503 -2.70297,-1.0906 0.79697,-0.49256 4.45313,-1.43242 8.12479,-2.08858 8.53331,-1.52499 13.61791,-0.32942 22.09947,5.19636 6.05241,3.94319 6.47587,4.06223 12.26878,3.44907 14.55801,-1.54093 18.00822,-2.17422 16.23155,-2.97931 -0.97265,-0.44076 -3.75942,-0.30005 -6.19282,0.31269 -8.80056,2.21601 -15.38477,0.6268 -20.76286,-5.01147 -6.07279,-6.36656 -15.49309,-8.71591 -25.43029,-6.3421 -7.46182,1.78248 -9.78394,1.71395 -5.48512,-0.16187 1.84825,-0.80651 6.25134,-1.73633 9.78464,-2.06627 9.2491,-0.86369 16.95134,1.63994 22.29538,7.24717 4.76275,4.99733 8.58558,6.00047 18.91414,4.96321 5.72961,-0.5754 7.2762,-0.37517 10.19954,1.32052 2.15013,1.24718 6.34984,2.26123 11.1688,2.69678 4.29698,0.38836 8.20026,1.27313 8.79892,1.99446 1.24649,1.50193 -3.53096,1.1453 -13.24421,-0.98866 -7.03104,-1.54469 -6.63204,-0.10852 0.52323,1.8833 4.80755,1.33829 7.1793,1.64041 13.61605,1.73447 2.45034,0.0358 5.98893,3.30811 6.04978,5.59453 0.0459,1.72296 2.03327,1.58689 2.03327,-0.13922 0,-1.91044 -2.54882,-4.6485 -8.8398,-9.49611 -4.50605,-3.47221 -6.07022,-4.11467 -10.01786,-4.11467 -3.38843,0 -5.73136,-0.71573 -8.49878,-2.59624 -3.5949,-2.4428 -4.28554,-2.55509 -11.68568,-1.90003 -7.55577,0.66884 -8.0732,0.57577 -13.16143,-2.36715 -2.91305,-1.68484 -6.87145,-4.45979 -8.79645,-6.16653 -1.925,-1.70675 -5.75,-4.41901 -8.5,-6.02723 -2.75,-1.60823 -4.3006,-2.92827 -3.44578,-2.93344 1.89568,-0.0114 10.19017,5.14719 14.90015,9.26692 1.8999,1.66181 5.7499,4.0724 8.55554,5.35687 4.62447,2.11715 5.65873,2.23718 11.06739,1.28447 5.70561,-1.00503 6.22087,-0.91698 11.796,2.01571 3.20639,1.68666 7.1048,3.06665 8.66315,3.06665 6.41601,0 15.90707,6.53571 18.49881,12.73862 0.82004,1.96265 1.76476,3.29469 2.09936,2.96009 0.941,-0.941 -4.05865,-8.80873 -8.01268,-12.60918 -2.91022,-2.7972 -4.67069,-3.56397 -9.79002,-4.26408 -3.43296,-0.46949 -7.16203,-1.52757 -8.28683,-2.35129 -9.60209,-7.03186 -9.48863,-6.98903 -17.75522,-6.70198 -9.17982,0.31876 -10.52103,-0.24569 -17.32541,-7.29142 -6.54557,-6.77774 -12.99147,-8.94493 -26.46446,-8.89765 -9.41107,0.033 -9.63347,0.0913 -23.75789,6.22264 -16.48281,7.15515 -21.8119,8.57224 -28.73988,7.64239 -8.65466,-1.16159 -7.71925,-1.94814 2.31683,-1.94814 9.56633,0 9.83484,-0.0669 22.68094,-5.65274 21.79956,-9.47901 25.34866,-10.11935 38.62886,-6.96953 8.6384,2.04886 13.00607,4.42584 17.78761,9.6804 4.74576,5.21524 8.81597,6.6926 14.86464,5.39539 5.78035,-1.23966 8.37132,-0.45586 14.8529,4.4932 3.04971,2.32862 6.04645,3.65131 9.19508,4.05846 2.569,0.33221 5.71001,0.81969 6.98002,1.0833 3.62483,0.75239 10.68105,7.91232 13.30344,13.49899 l 2.38745,5.08614 8,-0.6515 c 4.98778,-0.40619 9.88264,-0.20678 13,0.52961 2.75,0.64961 8.4552,1.50914 12.67821,1.91007 l 7.67821,0.72897 11.82179,8.93438 c 6.50199,4.9139 15.19679,10.80884 19.32179,13.09985 9.56391,5.31176 44.49284,28.90614 70,47.28475 7.425,5.34992 20.25,13.74842 28.5,18.66333 8.25,4.91491 18.375,11.42854 22.5,14.47474 13.82685,10.21074 24.28971,16.38448 29.94561,17.66977 3.43242,0.78001 7.38234,2.69975 10.68438,5.19282 2.88133,2.17542 8.0808,5.4939 11.55439,7.37441 13.02226,7.04989 51.4183,16.33082 87.31562,21.10556 6.6,0.87787 16.5,2.22682 22,2.99766 5.5,0.77084 15.4,1.90368 22,2.51743 16.2152,1.5079 27.7058,4.30025 35,8.50542 3.3,1.90248 9.6,5.31507 14,7.58352 4.4,2.26846 10.6868,5.74312 13.9707,7.72148 7.0667,4.25732 14.0966,5.40292 44.0293,7.17506 10.45,0.61868 21.25,1.53033 24,2.02589 13.6764,2.46453 20.3975,4.36388 24.6064,6.95362 11.0853,6.82086 20.0345,10.16846 29.4121,11.0021 4.9602,0.44095 14.1852,2.20568 20.5,3.92162 6.3148,1.71595 13.4656,3.64527 15.8907,4.2874 2.4251,0.64213 8.3615,3.78896 13.1922,6.99297 4.8306,3.204 9.4574,5.82546 10.2817,5.82546 1.6355,0 3.1513,1.79898 2.2636,2.68663 -1.1692,1.16922 -5.6233,-0.84711 -13.6052,-6.159 -4.5602,-3.03479 -10.1476,-5.99164 -12.4164,-6.57078 -2.2688,-0.57913 -9.5251,-2.59 -16.1251,-4.46858 -6.6,-1.87858 -16.2872,-3.84283 -21.5271,-4.36499 -9.6257,-0.9592 -13.4093,-2.38549 -31.4729,-11.86398 -6.4446,-3.38166 -21.6788,-6.07301 -41.0913,-7.25937 -9.9502,-0.60809 -23.4502,-1.69572 -30,-2.41695 -13.0186,-1.43354 -11.8125,-0.91908 -41.5898,-17.73956 -14.389,-8.12794 -15.9501,-8.50099 -53.3189,-12.74081 -43.53387,-4.93931 -73.90247,-10.567 -101,-18.71658 -12.67288,-3.81137 -20.51099,-7.62329 -29.43061,-14.31305 -2.98683,-2.24014 -6.36183,-4.06297 -7.5,-4.05074 -1.94698,0.0209 -1.9215,0.13606 0.43061,1.94654 1.375,1.05837 2.56059,2.51087 2.63465,3.22777 0.0741,0.7169 0.24281,1.64095 0.375,2.05345 0.13219,0.4125 0.2966,1.28913 0.36535,1.94806 0.0688,0.65893 5.39523,3.55769 11.83662,6.44169 6.44139,2.88399 12.96639,6.1499 14.5,7.25757 1.71956,1.24198 8.3464,3.17316 17.28838,5.03817 7.975,1.66332 16.6519,3.6911 19.282,4.50616 2.63009,0.81507 7.58009,1.9798 11,2.5883 9.20662,1.6381 22.72544,6.03538 26.56454,8.64066 1.85256,1.25718 5.90745,3.48302 9.01087,4.94633 3.10343,1.4633 8.34259,4.55142 11.64259,6.86248 8.99799,6.30149 38.9225,20.97603 49.0734,24.06485 4.9096,1.49396 11.2413,3.73676 14.0704,4.98401 2.8291,1.24726 9.3541,3.45125 14.5,4.89777 5.1459,1.44651 14.5312,5.05233 20.8562,8.01293 16.14,7.55479 35.7869,13.90294 54.5,17.60959 14.3414,2.84073 18.125,3.19558 36.5,3.42324 11.275,0.13969 24.55,0.82867 29.5,1.53107 6.4376,0.91348 15.6194,1.09423 32.25,0.63485 19.6553,-0.54293 23.25,-0.42399 23.25,0.76926 0,1.0815 -1.6949,1.42169 -7.25,1.45516 -3.9875,0.024 -13.55,0.33114 -21.25,0.68246 -10.486,0.47844 -17.263,0.21381 -27,-1.05431 -7.3209,-0.95345 -21.7371,-1.8138 -33,-1.96943 -18.4879,-0.25545 -21.2853,-0.54579 -37,-3.84018 -18.2162,-3.81879 -36.5855,-9.935 -53.0242,-17.65481 -5.5134,-2.58912 -14.2884,-5.92686 -19.5,-7.41721 -5.2117,-1.49034 -11.9016,-3.81606 -14.8665,-5.16826 -2.9648,-1.3522 -8.1398,-3.15726 -11.5,-4.01124 -7.6638,-1.94775 -42.08736,-18.44901 -50.1093,-24.02036 -3.3,-2.2919 -8.925,-5.62847 -12.5,-7.41461 -3.575,-1.78613 -7.73482,-4.11926 -9.24405,-5.18472 -3.24475,-2.29067 -18.65495,-7.21355 -27.50388,-8.78629 -3.43636,-0.61074 -8.16136,-1.79434 -10.5,-2.63022 -2.33864,-0.83587 -8.88091,-2.37829 -14.53837,-3.4276 -14.43814,-2.67789 -18.21362,-3.78083 -22.2137,-6.48935 -2.99923,-2.03083 -32.90931,-15.47602 -34.42785,-15.47602 -0.29339,0 -4.38707,-1.83086 -9.09707,-4.06857 -4.71,-2.23772 -9.05427,-3.90503 -9.65394,-3.70514 -1.61868,0.53956 11.08366,8.52193 16.49506,10.36578 5.42578,1.84875 6.91662,3.40793 3.25856,3.40793 -1.3988,0 -7.16286,-2.41875 -12.80902,-5.37501 -12.3525,-6.46761 -25.63153,-12.09253 -26.49918,-11.22489 -1.2028,1.2028 5.83253,7.27717 14.01018,12.09652 4.52279,2.66543 10.8499,6.82004 14.06024,9.23246 3.21034,2.41243 7.26034,5.06633 9,5.89756 2.84373,1.35876 9.66302,10.00165 9.66302,12.24709 0,0.49333 -2.86413,3.57621 -6.36474,6.85086 -5.43189,5.08127 -7.81355,6.48334 -16.25,9.56632 -11.01957,4.02695 -30.20379,9.70909 -32.78012,9.70909 -0.91949,0 -3.20012,1.52831 -5.06805,3.39624 -1.86793,1.86794 -5.67793,4.1541 -8.46667,5.08037 -2.78873,0.92627 -5.07042,2.03952 -5.07042,2.47389 0,0.43437 7.5375,1.01336 16.75,1.28664 14.97834,0.44432 16.96154,0.31134 18.75,-1.25728 5.71209,-5.00995 10.49749,-6.34959 24.25,-6.78857 17.23496,-0.55015 17.6859,1.27524 0.52983,2.14475 -10.84863,0.54984 -13.49699,1.02476 -18,3.22788 -5.42848,2.6559 -6.76473,4.43608 -3.32986,4.43608 1.07248,0 9.95998,0.69665 19.75,1.5481 32.30906,2.80998 48.43284,5.67841 56.14343,9.98794 2.42468,1.35518 5.5923,2.46396 7.03915,2.46396 1.44686,0 4.20268,0.47583 6.12405,1.05739 1.92137,0.58157 7.57671,1.0194 12.56741,0.97296 9.78774,-0.0911 15.19533,1.23147 27.92599,6.82992 3.85,1.69308 12.175,4.64862 18.5,6.56787 7.13749,2.16579 14.15544,5.10526 18.5,7.74874 6.19406,3.76882 7.83256,4.30413 14.23126,4.64951 3.97724,0.21467 12.73994,-0.39529 19.47274,-1.35549 9.2244,-1.31551 15.1717,-1.5802 24.1301,-1.07393 14.8099,0.83698 19.9256,1.86038 30.7395,6.14948 4.7155,1.87029 11.6905,4.11874 15.5,4.99657 7.7023,1.77483 10.5519,3.45698 5.8563,3.45698 -4.0406,0 -15.6341,-3.30391 -22.9142,-6.53011 -3.2914,-1.45857 -9.8164,-3.3245 -14.5,-4.14652 -10.2701,-1.80249 -32.7854,-2.1005 -39.0157,-0.51641 -2.475,0.62928 -9.7268,1.15515 -16.11514,1.16859 -9.94288,0.0209 -11.96482,-0.25061 -14.04392,-1.88602 -4.45122,-3.50134 -14.4512,-8.04146 -23.4455,-10.64457 -4.89249,-1.41597 -11.59544,-3.71597 -14.89544,-5.1111 -17.2878,-7.30872 -18.63028,-7.67239 -29,-7.85598 -12.98317,-0.22987 -22.77288,-1.97001 -27.8939,-4.95821 -6.91875,-4.03719 -23.98952,-6.87848 -60.6061,-10.08738 -9.625,-0.84349 -22,-1.9412 -27.5,-2.43936 -15.28611,-1.38454 -42.30669,-1.16858 -53.25658,0.42564 -14.95913,2.17794 -34.60811,2.90476 -46.80546,1.73134 C 687.38663,543.31118 638,542.22805 638,543.34593 c 0,0.49227 1.75175,1.87957 3.89277,3.0829 2.77311,1.55857 8.14355,2.76348 18.67168,4.18915 8.12839,1.10071 14.99105,2.21344 15.25035,2.47274 2.0525,2.0525 -8.11692,1.557 -23.13053,-1.12702 -2.99471,-0.53537 -2.85686,-0.32533 2.31573,3.52843 14.85467,11.06725 23.05001,12.52049 69.0569,12.24553 32.54132,-0.19448 32.5595,-0.19341 38,2.24142 3.96199,1.77314 9.38867,2.88006 19.9431,4.06793 19.88641,2.23816 40.91098,4.26697 57,5.50035 7.425,0.5692 17.775,1.67519 23,2.45776 5.225,0.78258 16.925,2.40325 26,3.60151 21.04207,2.77837 27.87194,4.13439 43.11535,8.56022 11.69514,3.39561 13.58165,3.64745 33.88465,4.52337 11.825,0.51017 29.825,1.5991 40,2.41986 39.8999,3.21849 58.5154,4.44579 83.5,5.50505 50.6114,2.14575 75.3951,5.526 102,13.91183 8.8223,2.78078 19.7149,4.60397 44.2836,7.41217 6.756,0.7722 12.5685,1.68888 12.9167,2.03706 1.5917,1.5917 -1.4301,1.623 -14.3336,0.14848 -17.3181,-1.97899 -34.0814,-2.26133 -65.2403,-1.09886 l -24.3737,0.90933 6.8737,2.78473 6.8736,2.78473 45.25,0.0523 c 39.5323,0.0457 45.25,0.24186 45.25,1.55232 0,1.33173 -70,1.5 -624,1.5 -554,3e-5 -624,-0.16824 -624,-1.49997 z m 1151,-1.91788 c 0,-0.22983 -3.7125,-1.63522 -8.25,-3.12309 -4.5375,-1.48787 -13.65,-4.8572 -20.25,-7.4874 -6.6,-2.6302 -12.9811,-5.07017 -14.1803,-5.42216 -3.4297,-1.00674 -35.5866,-0.82592 -74.3666,0.41816 -30.3475,0.97356 -38.90432,0.91102 -58.50003,-0.42761 -12.62419,-0.86238 -28.35307,-2.4264 -34.95307,-3.4756 -6.6,-1.0492 -19.425,-3.08635 -28.5,-4.52701 -93.52126,-14.84652 -118.26534,-17.86363 -172.5,-21.0334 -14.3,-0.83577 -30.275,-1.95038 -35.5,-2.47691 -11.46738,-1.15557 -37.69466,-2.72858 -59.5,-3.56856 -8.8,-0.33899 -22.5869,-1.45626 -30.63755,-2.48281 -28.41281,-3.62297 -42.11186,-3.60184 -83.36245,0.12858 -11.61924,1.05076 -12.47595,0.98837 -27,-1.96644 -14.8473,-3.02056 -27.18477,-4.06205 -66,-5.57151 -15.68907,-0.61012 -14.2269,0.43639 5.4406,3.89397 7.45767,1.31108 22.7844,4.63639 34.0594,7.38959 11.275,2.75319 26.125,6.2141 33,7.69089 6.875,1.4768 21.26245,5.1252 31.9721,8.10755 35.13035,9.78288 43.21941,11.37695 65.0279,12.81466 20.75627,1.36835 28.15792,2.68245 46.34962,8.229 9.98271,3.04367 24.90038,7.257 33.15038,9.36295 l 15,3.829 224.75,0.058 c 123.6125,0.0319 224.75,-0.13004 224.75,-0.35987 z m 36,-9.2379 12.5,-0.6324 -8,-2.20134 c -28.5446,-7.85455 -31.3029,-8.408 -52,-10.43358 -11.55,-1.13037 -30,-2.51524 -41,-3.07749 -50.1792,-2.56483 -60.3764,-3.19678 -81.219,-5.03334 -12.2204,-1.07682 -38.77039,-2.63074 -58.99996,-3.45317 -20.22957,-0.82242 -48.03104,-1.95678 -61.78104,-2.52079 -30.6331,-1.25653 -54.50364,-1.67438 -54.50156,-0.95405 0.002,0.55567 6.91565,1.65516 47.00156,7.47436 12.925,1.8763 31.44973,4.75469 41.16607,6.39642 33.44394,5.65089 49.82305,6.24191 140.83393,5.08188 l 38.5,-0.49072 10.8708,4.85017 c 5.9789,2.6676 12.9539,5.22872 15.5,5.69137 4.5789,0.83206 26.9227,0.52732 51.1292,-0.69732 z M 930.5,596.63722 c -5.93752,-2.48387 -19.00393,-5.26321 -35,-7.44479 -45.73179,-6.23701 -57.13142,-7.5817 -73,-8.61099 -9.35,-0.60648 -21.72387,-1.76322 -27.49748,-2.57055 -5.77361,-0.80733 -14.5765,-1.89084 -19.56196,-2.4078 -5.31418,-0.55106 -11.10752,-1.85001 -14.00252,-3.13959 -6.23461,-2.77721 -20.20794,-3.4901 -39.7359,-2.02725 -10.6422,0.79721 -17.04599,0.71975 -28,-0.33869 C 670.59184,567.8645 665.54906,566.27289 653.5,557.40887 641.1485,548.32236 631.43797,542.221 623.58958,538.61544 608.52962,531.69687 605.22084,530.96653 583,529.65615 c -11.275,-0.6649 -24.55,-1.63511 -29.5,-2.15603 -4.95,-0.52092 -21.375,-1.21785 -36.5,-1.54873 -24.73936,-0.54122 -28.80503,-0.39473 -40.5,1.45927 -7.15,1.13348 -15.925,2.34579 -19.5,2.69402 -10.26392,0.99977 -39.20808,7.21646 -46.16963,9.91641 -3.48171,1.35033 -9.70537,3.88954 -13.83037,5.64268 -4.125,1.75313 -11.325,4.44437 -16,5.98053 -14.19073,4.66292 -26.007,9.4701 -36.13276,14.6998 l -9.63276,4.97507 55.15731,0.1326 c 64.45523,0.15495 91.96702,1.56447 112.93254,5.78593 l 13.61412,2.74123 27.13092,-1.83756 c 29.56825,-2.00264 51.41711,-1.69938 69.43063,0.96372 5.5,0.81311 19.9,1.92205 32,2.46432 27.08145,1.21368 33.41565,1.60647 65.5,4.06173 14.025,1.07326 36.525,2.62735 50,3.45353 13.475,0.82618 31.7,2.37533 40.5,3.44254 11.69749,1.41861 26.08401,2.1195 53.5,2.60642 31.13945,0.55305 48.39648,1.06635 75,2.23083 2.24118,0.0981 2.29294,0.0228 0.5,-0.72724 z M 182.02986,583.07838 c 6.85858,-0.84197 17.19514,-2.40212 22.97014,-3.467 9.88815,-1.82331 22.39646,-3.16219 42,-4.49565 4.675,-0.318 13.225,-0.98973 19,-1.49273 5.775,-0.503 21.93099,-1.19373 35.90221,-1.53495 25.02891,-0.61129 25.51003,-0.66324 32.73928,-3.53501 4.03539,-1.60302 9.77668,-4.29142 12.75843,-5.97422 5.24972,-2.96275 25.47586,-11.12606 32.60008,-13.15745 5.56487,-1.58675 5.9176,-2.81212 0.80948,-2.81212 -2.52479,0 -8.92025,-1.12496 -14.21213,-2.4999 -5.29187,-1.37495 -14.22864,-2.9148 -19.85947,-3.42189 -5.63083,-0.50709 -13.16288,-1.61328 -16.73788,-2.45821 -3.575,-0.84493 -13.7,-2.48113 -22.5,-3.63601 -8.8,-1.15488 -18.925,-2.78912 -22.5,-3.63164 -9.13629,-2.15317 -19.55535,-2.02062 -33.5,0.42619 -6.6,1.15808 -16.5,2.61468 -22,3.23689 -5.5,0.62221 -14.74066,2.18777 -20.53481,3.47902 -5.79414,1.29125 -14.96097,2.84127 -20.37074,3.44449 -5.40976,0.60323 -13.26909,1.99802 -17.46519,3.09954 -4.19609,1.10151 -12.35426,2.27071 -18.12926,2.5982 -6.60623,0.37464 -14.95002,1.72159 -22.5,3.6322 -8.06242,2.0403 -15.93758,3.26861 -24,3.74337 -6.6,0.38864 -13.35,1.18339 -15,1.76613 -1.65,0.58273 -5.925,1.3264 -9.5,1.65261 -3.575,0.3262 -8.697763,1.25929 -11.383918,2.07353 -2.686154,0.81423 -8.986154,2.18097 -14,3.03719 -9.537929,1.62881 -14.001242,3.08608 -26.921384,8.78982 -9.592853,4.23488 -10.241848,4.8192 -4.615668,4.15574 41.388962,-4.88076 57.662152,-5.37464 83.92097,-2.54694 19.69636,2.12101 25.45221,3.14804 47.5,8.47552 12.27936,2.96709 10.52868,2.89487 25.52986,1.05328 z M 400.30099,541.7414 c 5.05945,-2.12731 11.22401,-4.60097 13.69901,-5.497 6.86646,-2.4859 32.95322,-7.509 47.41524,-9.12999 11.15615,-1.25044 13.2673,-1.77705 15.5,-3.86636 1.42162,-1.33032 4.60976,-3.43084 7.08476,-4.66783 7.37029,-3.68362 14.80163,-8.73179 15.9142,-10.81065 0.81142,-1.51615 0.49418,-2.97512 -1.43639,-6.60603 -2.99088,-5.62507 -3.00975,-5.99851 -0.4824,-9.54785 1.41608,-1.98869 1.82032,-3.6778 1.39232,-5.81779 -0.59014,-2.95071 2.00851,-9.18865 3.82788,-9.18865 0.43141,0 0.78439,-0.59873 0.78439,-1.33052 0,-0.73179 1.10786,-3.51883 2.46192,-6.19343 2.5632,-5.06298 2.52162,-5.35109 -1.36312,-9.44475 -1.22231,-1.28805 -2.16518,-0.65023 -7.3856,4.99608 -3.29142,3.55994 -6.60442,7.93512 -7.36222,9.72262 -2.61021,6.15696 -4.34516,2.80474 -1.94083,-3.75 0.38225,-1.04209 -0.74114,-2.07977 -3.67997,-3.39918 -2.3266,-1.04455 -4.93596,-2.50284 -5.79858,-3.24064 -1.76013,-1.50545 -2.9813,-0.77672 -13.00567,7.76114 -2.98426,2.54173 -12.39993,9.61332 -20.92372,15.71465 -11.66585,8.35043 -18.39241,12.36917 -27.20475,16.2533 -7.22025,3.18241 -14.02573,7.02846 -17.75724,10.03535 -3.32766,2.68146 -6.37832,4.87538 -6.77923,4.87538 -0.40092,0 -4.56115,1.78503 -9.24497,3.96674 -10.17571,4.73982 -27.94157,12.21355 -33.51602,14.09951 l -4,1.35328 6,0.7102 c 3.3,0.3906 9.60907,1.64947 14.02015,2.79748 7.59705,1.97718 17.21295,3.68227 22.28084,3.95085 1.26554,0.0671 6.44054,-1.61859 11.5,-3.74591 z M 436,527.76818 c 0,-0.46259 2.2164,-2.04739 4.92533,-3.52177 3.61409,-1.96704 5.09125,-3.43615 5.54858,-5.51839 0.79332,-3.61193 3.79783,-6.36936 15.24269,-13.98917 5.06913,-3.37495 9.68838,-7.0178 10.265,-8.09521 0.57661,-1.07742 3.02823,-3.32111 5.44803,-4.98598 2.41981,-1.66487 6.23321,-4.94434 8.47423,-7.28772 2.65216,-2.7733 4.07834,-3.70041 4.08536,-2.65575 0.0112,1.66499 -8.45837,10.19899 -13.20023,13.30069 -1.49105,0.97531 -2.95702,2.54841 -3.2577,3.49578 -0.30068,0.94737 -4.93073,4.58388 -10.28899,8.08115 -12.19496,7.95948 -13.98179,9.55486 -14.782,13.19818 C 447.59062,523.74963 436,531.17097 436,527.76818 Z m 294.03223,14.43209 c 3.56583,-0.34554 13.9707,-7.12122 13.96037,-9.09102 -0.003,-0.55 -1.3524,-1.76657 -2.99892,-2.70349 -3.69165,-2.10065 -3.79069,-4.35517 -0.34914,-7.94737 l 2.64453,-2.76031 -2.39453,-0.96306 c -1.317,-0.52968 -3.18204,-1.21055 -4.14454,-1.51303 -2.47375,-0.77742 -2.17086,-3.28279 0.75,-6.20365 2.82639,-2.82639 2.94898,-3.52545 1.37942,-7.866 -0.98636,-2.72774 -0.8067,-3.56143 1.5,-6.96054 3.22281,-4.74908 3.23579,-6.71143 0.0865,-13.08255 l -2.47153,-5 2.02873,-1.68128 c 1.88754,-1.56428 7.2386,-2.45919 16.20112,-2.70947 2.04834,-0.0572 5.51416,0.82896 7.70184,1.96924 2.18767,1.14028 5.01177,1.90022 6.27576,1.68876 2.19238,-0.36678 2.16008,-0.44879 -0.70184,-1.78159 -1.65,-0.76842 -5.7,-3.4574 -9,-5.97553 -3.3,-2.51812 -7.90236,-5.85471 -10.22747,-7.41465 -4.44428,-2.98172 -6.84501,-5.35633 -6.13403,-6.06732 0.23293,-0.23293 2.65956,1.34817 5.3925,3.51354 2.73295,2.16537 5.28494,3.94183 5.67109,3.94767 1.03884,0.0157 13.31681,8.72602 14.77241,10.4799 0.68866,0.82979 1.6733,1.2484 2.18808,0.93025 0.51478,-0.31815 -1.07548,-2.14556 -3.53392,-4.06091 -4.06636,-3.16807 -6.25389,-6.04671 -5.3113,-6.9893 0.83765,-0.83765 7.15473,4.46457 6.84931,5.74894 -0.18334,0.77096 0.008,1.06013 0.42581,0.6426 0.41753,-0.41753 1.72043,0.14394 2.89534,1.24771 1.83948,1.7281 2.39091,1.8206 3.97003,0.66592 1.75973,-1.28675 1.73803,-1.4786 -0.53695,-4.74771 -1.30393,-1.87372 -4.18206,-5.3822 -6.39584,-7.79661 l -4.02506,-4.38985 3.29157,1.88001 c 1.81036,1.034 5.18536,3.78789 7.5,6.11975 4.65549,4.69013 6.27395,5.22422 7.18004,2.36939 0.33351,-1.0508 1.71383,-2.63617 3.06738,-3.52305 1.35356,-0.88689 2.46101,-2.32593 2.46101,-3.19787 0,-1.57449 1.30893,-1.52406 7.36831,0.28389 1.24148,0.37042 1.72477,0.12682 1.44048,-0.72605 -0.4775,-1.43252 -1.00238,-1.74979 -8.80879,-5.32454 -10.5964,-4.85237 -21.07085,-11.82847 -26.5,-17.6493 -1.86496,-1.99951 0.97264,-0.35632 7.5,4.34307 10.63795,7.65883 21.04955,13.70439 23.60155,13.70439 3.51039,0 0.0443,-3.8205 -5.43568,-5.99147 -1.83376,-0.72647 -3.73604,-2.378 -4.22728,-3.67006 -0.49443,-1.30045 -4.36313,-4.60727 -8.66588,-7.40728 -4.27499,-2.78195 -8.67271,-6.08374 -9.77271,-7.33731 -1.1,-1.25356 -3.9125,-3.48066 -6.25,-4.94909 -2.3375,-1.46843 -4.25,-3.01721 -4.25,-3.44173 0,-0.42451 -1.29589,-1.53735 -2.87976,-2.47296 -1.58386,-0.93561 -5.07136,-3.77776 -7.75,-6.31589 -2.67863,-2.53812 -6.89524,-5.65446 -9.37024,-6.9252 -2.475,-1.27073 -6.075,-3.96005 -8,-5.97625 -1.925,-2.0162 -5.81794,-4.76798 -8.65097,-6.11506 -2.83303,-1.34708 -6.28666,-3.90015 -7.67472,-5.67347 -1.38807,-1.77333 -4.36629,-5.20307 -6.61827,-7.62166 -4.59631,-4.93634 -4.68908,-6.5881 -0.16721,-2.977 5.72052,4.56831 19.92561,13.87443 21.17828,13.87443 0.47637,0 3.14389,2.02297 5.92782,4.49549 2.78392,2.47253 6.28644,5.2556 7.78338,6.18462 1.49693,0.92902 3.79908,2.61855 5.1159,3.75451 l 2.39421,2.06538 -1.75922,-2.75 c -2.61476,-4.08738 -0.0704,-3.32951 3.16991,0.94418 3.99748,5.27241 7.31942,8.64134 11.05089,11.20721 1.7875,1.22914 3.25,2.87916 3.25,3.6667 0,0.78755 0.49774,1.43191 1.1061,1.43191 0.60835,0 2.74585,1.2963 4.75,2.88066 2.00414,1.58437 6.5689,4.21491 10.1439,5.84567 3.575,1.63075 8.75,5.0513 11.5,7.60123 2.75,2.54992 6.32144,5.10023 7.93653,5.66734 l 2.93654,1.03111 -2.36085,-2.513 c -2.86249,-3.04698 -1.82395,-3.29225 1.82962,-0.43211 C 804.95419,444.90944 819,452.5226 819,451.5323 c 0,-0.48532 -1.6875,-1.76686 -3.75,-2.84786 -4.79211,-2.51166 -10.15487,-6.99227 -8.42511,-7.03923 0.7287,-0.0198 4.5537,2.05969 8.5,4.62104 C 830.52822,456.13396 833,457.65368 833,457.13342 c 0,-0.2955 -3.2625,-2.61832 -7.25,-5.16182 -3.9875,-2.54349 -10.0587,-6.82015 -13.49155,-9.50368 -3.43286,-2.68352 -12.04125,-8.21165 -19.12977,-12.28473 -12.6232,-7.25332 -16.72223,-9.9591 -33.39348,-22.04318 -4.52936,-3.28308 -12.2852,-8.72401 -17.2352,-12.09096 -4.95,-3.36694 -15.9753,-10.85963 -24.50066,-16.65041 -8.52536,-5.79079 -19.13516,-12.53909 -23.57734,-14.99623 -4.44218,-2.45714 -12.91261,-8.20072 -18.82319,-12.76351 l -10.74651,-8.29599 -7.67615,-0.79837 c -4.22188,-0.4391 -9.9827,-1.30446 -12.80181,-1.92303 -3.72184,-0.81663 -9.85837,-0.84301 -22.40592,-0.0963 -14.92247,0.88806 -17.566,1.29597 -19.37435,2.98959 -2.20672,2.06671 -6.74269,4.09444 -9.15917,4.09444 -2.37149,0 -1.62072,-2.42156 1.3151,-4.24177 2.34452,-1.45361 2.45511,-1.70438 0.75,-1.70074 -17.67347,0.0377 -39.31904,10.7754 -63.67983,31.58959 -3.1239,2.66911 -10.67478,8.00292 -16.77973,11.85292 -6.10495,3.85 -19.29903,12.33574 -29.32018,18.85721 -10.02114,6.52146 -21.90016,13.61486 -26.39781,15.76311 -4.49765,2.14826 -12.50929,6.80207 -17.80364,10.34182 -5.29434,3.53975 -13.88149,9.03272 -19.08254,12.20661 -9.05193,5.52385 -10.53725,7.16666 -7.37377,8.15565 0.79062,0.24718 1.12664,0.11444 0.74669,-0.29497 -1.33335,-1.43675 3.78992,-5.3397 14.31902,-10.90836 5.84552,-3.09158 10.95617,-5.62106 11.35699,-5.62106 0.40083,0 0.46976,0.675 0.15317,1.5 -0.81765,2.13078 -0.0781,1.89862 4.93145,-1.54804 6.7367,-4.63497 5.28758,-1.82818 -2.17191,4.20676 -9.71307,7.85815 -10.03988,8.08411 -20.73743,14.33849 -5.41174,3.164 -11.03674,6.83384 -12.5,8.15521 l -2.66048,2.40248 4.95502,-2.27745 c 2.72526,-1.2526 8.46276,-4.14788 12.75,-6.43397 5.14706,-2.74457 7.79498,-3.69878 7.79498,-2.80902 0,0.74113 -0.45,1.62562 -1,1.96554 -1.15972,0.71675 -1.36143,3.51523 -0.25,3.46839 0.4125,-0.0174 1.93098,-1.97941 3.3744,-4.36007 1.63456,-2.69589 3.61024,-4.57589 5.23817,-4.98447 1.43757,-0.36081 4.53159,-1.96624 6.8756,-3.56762 3.68128,-2.51498 4.34179,-2.68841 4.84885,-1.27316 0.47052,1.3133 1.66121,0.626 6,-3.46336 5.74521,-5.41493 15.44129,-11.64361 17.20843,-11.05456 0.58226,0.19409 -0.70852,1.41063 -2.8684,2.70343 -5.82215,3.48488 -14.55187,10.23994 -13.97665,10.81515 0.2757,0.2757 1.16743,-0.0516 1.98163,-0.72732 0.8142,-0.67572 1.95242,-0.93684 2.52938,-0.58026 2.38651,1.47494 -11.43399,16.52385 -15.17504,16.52385 -0.50931,0 -2.8071,1.28188 -5.10619,2.84862 -2.2991,1.56675 -5.3707,3.13853 -6.82577,3.49285 -1.45508,0.35432 -6.07523,2.25034 -10.26702,4.21336 -4.68352,2.19331 -8.36854,3.33202 -9.55957,2.954 -2.36172,-0.74958 -9.73834,3.11903 -27.52782,14.43673 -7.15,4.54884 -18.85,11.10253 -26,14.56376 -7.15,3.46122 -14.8,7.82981 -17,9.70798 -2.2,1.87816 -6.925,4.46937 -10.5,5.75824 -3.575,1.28887 -11.675,4.47814 -18,7.08725 -6.325,2.60911 -14.08204,5.54281 -17.23787,6.51932 -3.15583,0.97652 -5.59681,1.91654 -5.42441,2.08894 0.1724,0.17241 7.02944,1.22026 15.23787,2.32858 8.20843,1.10831 17.62441,2.67076 20.92441,3.47212 3.3,0.80135 7.125,1.47071 8.5,1.48745 1.375,0.0167 9.025,-2.69517 17,-6.02647 7.975,-3.33129 16.25062,-6.70627 18.39027,-7.49995 2.13964,-0.79367 5.28964,-2.28616 7,-3.31663 1.71035,-1.03048 4.83586,-2.42581 6.94557,-3.10075 4.58684,-1.46742 12.89757,-8.571 17.46121,-14.92493 8.49386,-11.82595 54.47408,-55.09047 58.54848,-55.09047 0.49465,0 0.33916,0.675 -0.34553,1.5 -2.88584,3.47723 0.944,1.1288 5.04179,-3.09159 4.24891,-4.37602 15.9608,-13.40841 17.38609,-13.40841 1.5903,0 -4.97321,7.16197 -8.7719,9.57171 -2.28579,1.45001 -4.91719,3.65187 -5.84756,4.893 -1.60825,2.14544 -1.59778,2.25116 0.21236,2.14595 1.04717,-0.0609 4.05838,-2.02015 6.69158,-4.35397 2.6332,-2.33383 5.05598,-4.13383 5.38395,-4 0.32796,0.13382 1.34046,-0.37429 2.25,-1.12913 1.41763,-1.17653 1.65369,-1.15057 1.65369,0.1819 0,0.85489 -1.3328,2.50339 -2.96179,3.66333 -2.00107,1.42489 -3.50704,3.83874 -4.64276,7.44165 -1.60573,5.09397 -1.59625,5.50545 0.21178,9.19225 2.586,5.27315 7.38271,6.7841 10.4178,3.28159 1.13825,-1.31356 2.52748,-3.58328 3.08716,-5.04384 0.55969,-1.46056 2.30564,-3.18908 3.87988,-3.84116 1.57425,-0.65207 4.10558,-3.05707 5.62518,-5.34443 3.95966,-5.96025 12.53021,-14.65885 14.44305,-14.65885 0.89574,0 2.93611,-1.12718 4.53416,-2.50484 2.68079,-2.31108 3.00223,-2.37365 4.15554,-0.80887 0.6875,0.93278 1.25,2.73496 1.25,4.00484 0,1.33739 0.60278,2.30887 1.43261,2.30887 1.97099,0 2.81739,3.22153 2.81739,10.72338 0,6.1738 0.0554,6.31018 1.89016,4.64978 1.03959,-0.94082 2.1768,-3.50312 2.52714,-5.694 0.6763,-4.22935 3.70846,-8.183 5.4502,-7.10654 0.57451,0.35506 0.77204,1.73136 0.43896,3.05843 -0.41533,1.65484 -0.12663,2.59666 0.91898,2.9979 0.87995,0.33767 1.52456,1.80825 1.52456,3.47804 0,2.629 1.8293,4.25859 2.125,1.89301 0.0688,-0.55 0.2375,-1.45 0.375,-2 0.1375,-0.55 0.30625,-1.675 0.375,-2.5 0.0688,-0.825 0.69175,-1.5 1.38445,-1.5 0.6927,0 1.82152,-0.9 2.50848,-2 0.68696,-1.1 1.74696,-2 2.35555,-2 0.67313,0 0.47396,0.97921 -0.50847,2.5 -0.88826,1.375 -2.33893,3.7375 -3.22371,5.25 l -1.60871,2.75 2.019,-2.25 c 2.48497,-2.76929 2.82491,-2.78626 3.50772,-0.17518 0.45936,1.75656 0.86072,1.90455 2.61664,0.96481 1.38151,-0.73936 2.07405,-0.76434 2.07405,-0.0748 0,0.56935 -0.41968,1.03518 -0.93261,1.03518 -0.51294,0 -1.24959,1.0125 -1.637,2.25 -0.38741,1.2375 -2.0442,4.20587 -3.68174,6.59638 -2.27983,3.32813 -2.53504,4.10967 -1.08936,3.33596 1.85401,-0.99223 10.0548,-9.54673 13.68718,-14.27751 2.16427,-2.81874 8.01888,-15.23855 8.96985,-19.02838 0.36207,-1.44295 1.60169,-3.69295 2.7547,-5 1.81059,-2.05248 1.99914,-2.1038 1.38303,-0.37645 -0.83227,2.33343 -5.87664,15.24948 -6.88243,17.62242 -0.55584,1.31137 -0.19726,1.52867 1.87035,1.13342 1.99839,-0.38201 2.56491,-0.0806 2.58945,1.37758 0.0363,2.15668 4.50098,5.76542 6.27157,5.06923 0.65836,-0.25886 2.28646,-3.33535 3.618,-6.83665 4.36955,-11.48974 5.28938,-13.40032 5.79816,-12.04342 0.58723,1.56615 -3.14408,12.18702 -5.82756,16.58766 -1.9571,3.20945 -2.54169,7.58976 -1.01291,7.58976 0.48327,0 1.43787,-1.35 2.12132,-3 0.68345,-1.65 1.63805,-3 2.12132,-3 0.48327,0 0.89486,-0.5625 0.91464,-1.25 0.0198,-0.6875 1.08165,-2.52821 2.35971,-4.09048 2.18364,-2.66921 2.35569,-2.71833 2.85353,-0.81458 0.30547,1.16812 -0.0227,2.23789 -0.77499,2.52658 -1.58079,0.60661 -6.6849,10.4964 -6.18743,11.98883 0.41842,1.25525 5.71322,-6.24457 5.71322,-8.09249 0,-0.69733 0.43588,-1.26787 0.96862,-1.26787 0.53273,0 0.70959,0.675 0.39301,1.5 -0.31659,0.825 -0.26903,2.2875 0.10567,3.25 0.61481,1.57925 0.86917,1.51966 2.60699,-0.61078 1.05914,-1.29844 1.92571,-3.63438 1.92571,-5.19099 0,-1.55661 0.45,-3.10831 1,-3.44823 0.55,-0.33992 1,0.13862 1,1.06343 0,2.73787 2.65801,-0.10347 3.35449,-3.58586 0.76977,-3.84885 2.3098,-3.77822 4.44202,0.20371 0.93692,1.74971 2.77456,4.21809 4.08365,5.4853 2.047,1.98152 2.28581,2.89401 1.70614,6.5191 -0.37071,2.3183 -1.04223,4.68742 -1.49227,5.26471 -0.45004,0.57728 -1.11388,2.28711 -1.47519,3.79961 -0.90611,3.79302 1.20002,3.56808 2.53836,-0.27111 1.03956,-2.98209 4.43738,-5.71764 5.62577,-4.52926 0.33642,0.33642 0.56474,2.26713 0.50739,4.29046 -0.16488,5.81685 1.61112,1.49586 2.37021,-5.76667 0.70224,-6.71873 1.41187,-6.33733 3.3112,1.77966 2.22656,9.51545 2.98334,6.6423 2.51094,-9.53286 -0.36122,-12.36815 -0.1639,-16.27396 0.89534,-17.72256 1.30658,-1.78686 1.40458,-1.77235 2.55566,0.37848 0.65834,1.23012 1.33058,5.72497 1.49387,9.98855 0.16329,4.26358 0.77782,8.65058 1.36562,9.7489 2.34518,4.38201 -1.64564,17.57003 -5.70693,18.85903 -1.10016,0.34917 -2.22958,1.9034 -2.59623,3.57271 -0.79327,3.61174 -2.05853,3.81006 -2.90068,0.45467 -0.43987,-1.75258 -1.30939,-2.5 -2.90841,-2.5 -1.25452,0 -2.70845,-0.39942 -3.23095,-0.88761 -0.5225,-0.48818 -2.02822,-1.21436 -3.34604,-1.61373 -2.38979,-0.72424 -2.39469,-0.70927 -1.87708,5.73899 0.51258,6.38563 -0.22866,9.24839 -2.9161,11.26235 -0.73392,0.55 -1.67901,3.02479 -2.10019,5.49954 -0.70577,4.14694 -0.55483,4.65629 1.92624,6.5 1.48061,1.10025 4.59805,3.46296 6.92764,5.25046 4.21988,3.23793 4.27883,3.25 15.87547,3.25 7.12037,0 13.87591,0.58242 17.39875,1.5 3.16739,0.825 7.32639,1.5 9.24222,1.5 6.91592,0 10.47389,2.51491 25.06834,17.71926 l 14.14926,14.74055 5.85074,0.57462 c 5.47539,0.53776 16.2867,0.34115 24.38298,-0.44341 z m -9.67735,-20.00714 c -2.82982,-1.76694 -8.90482,-4.22215 -13.5,-5.45602 -11.95026,-3.20879 -27.5336,-11.09676 -33.67124,-17.04368 -2.76912,-2.68308 -7.32973,-6.1274 -10.13468,-7.65405 -3.84652,-2.09354 -5.84897,-4.08496 -8.14782,-8.10292 -1.67636,-2.92997 -3.4649,-5.32721 -3.97453,-5.32721 -1.53382,0 -1.04967,1.57866 1.07339,3.5 2.68546,2.43031 2.53882,3.847 -0.25,2.41519 -3.34442,-1.71707 -8.75,-7.10309 -8.75,-8.71835 0,-0.79347 -0.60812,-1.17746 -1.38974,-0.87752 -2.55123,0.97899 -3.51612,-9.17221 -1.42224,-14.96274 0.88434,-2.44559 0.90242,-3.86966 0.0707,-5.571 -1.76066,-3.60166 -2.49001,-15.82626 -1.17005,-19.61134 0.85863,-2.46219 0.86786,-3.61769 0.0355,-4.45 -1.39334,-1.39341 -1.48094,-4.72424 -0.12417,-4.72424 0.55,0 1.00689,1.0125 1.01531,2.25 0.0112,1.64335 0.24711,1.88418 0.875,0.89324 1.26344,-1.99397 1.91945,-0.28192 2.57312,6.71527 0.32078,3.43385 0.98301,7.00794 1.47162,7.94243 0.4886,0.93448 1.42101,4.39906 2.07202,7.69906 0.65101,3.3 1.55583,6.95706 2.01072,8.1268 0.45489,1.16974 1.59473,5.21974 2.53298,9 2.81809,11.35418 7.61742,19.19633 13.81956,22.58128 4.51709,2.46531 5.33577,2.22518 6.67588,-1.95808 0.66073,-2.0625 2.27063,-5.18248 3.57756,-6.93328 2.37814,-3.18584 3.19431,-8.69308 1.44823,-9.77222 -0.51041,-0.31545 -1.21573,0.33299 -1.56739,1.44098 -0.86991,2.74084 -2.48239,2.49154 -5.80559,-0.89757 -1.54054,-1.57109 -4.91554,-3.43793 -7.5,-4.14853 -6.13783,-1.68759 -9.12875,-3.89198 -9.1676,-6.75677 -0.0264,-1.94908 0.32617,-2.20579 2.21858,-1.61522 1.2375,0.3862 2.58061,1.20402 2.98469,1.81739 0.42101,0.63908 0.74122,0.10232 0.75,-1.25722 0.0125,-1.94345 0.27394,-2.1578 1.44557,-1.18544 2.54649,2.1134 3.7071,-1.86445 1.9944,-6.83559 -0.80332,-2.33166 -1.19714,-4.66565 -0.87515,-5.18664 0.86772,-1.404 9.45049,5.12639 9.45049,7.19061 0,0.97431 0.52089,2.09339 1.15752,2.48685 0.81158,0.50158 0.96509,-0.004 0.51366,-1.69098 -0.35413,-1.3235 -0.65002,-3.60897 -0.65753,-5.07882 -0.0112,-2.19142 -0.6812,-2.89276 -3.72239,-3.89644 -4.59371,-1.51606 -13.41149,-10.25734 -10.85931,-10.76509 2.46847,-0.4911 1.63055,-1.76678 -3.91203,-5.95587 -6.05195,-4.57407 -8.07499,-7.86242 -7.1368,-11.60048 0.37985,-1.51346 1.21476,-2.57704 1.85534,-2.36352 1.57329,0.52443 4.93347,6.66664 4.2511,7.77074 -0.29983,0.48513 1.09803,1.19032 3.10635,1.56708 2.62953,0.4933 4.10665,1.51415 5.27779,3.64749 3.43153,6.25087 8.12069,11.51794 11.30781,12.70144 4.90842,1.82267 6.15334,2.57166 6.62467,3.98565 0.32904,0.9871 -0.0385,1.02749 -1.62474,0.17856 -1.12747,-0.60341 -3.09204,-1.06833 -4.3657,-1.03316 -1.98407,0.0548 -1.81446,0.30177 1.18426,1.72441 18.49202,8.77286 23.50213,11.04285 23.7736,10.77138 0.17388,-0.17388 -0.94155,-1.63577 -2.47873,-3.24864 -4.09592,-4.29761 -10.37299,-13.3111 -9.26995,-13.3111 0.5225,0 2.02227,1.6875 3.33283,3.75 1.31056,2.0625 3.3913,4.65 4.62388,5.75 5.0125,4.47337 10.32307,11.7599 10.41839,14.29486 0.0774,2.05977 0.776,2.85141 3.09998,3.51309 1.65,0.46978 5.21897,1.98804 7.93105,3.3739 l 4.93106,2.51974 -1.68106,-2.56561 c -3.34022,-5.09783 -1.17312,-5.54976 4.94553,-1.03134 1.71962,1.26988 3.36858,2.06687 3.66435,1.77109 C 729.28079,469.99512 740,482.07393 740,486.30604 c 0,1.98208 -0.37032,2.37508 -1.74202,1.84871 -2.18018,-0.83661 -15.59567,-8.92155 -20.19858,-12.17281 -1.89233,-1.33664 -4.59233,-2.68453 -6,-2.9953 -1.40767,-0.31077 -3.97741,-1.19781 -5.71053,-1.97121 -4.07589,-1.81885 -6.34887,-1.78526 -6.34887,0.0938 0,2.28179 -0.82393,1.89337 -6.78325,-3.19784 -4.13928,-3.5363 -5.18107,-4.09261 -4.2135,-2.25 0.70696,1.34631 2.79544,4.13664 4.64107,6.20072 1.84562,2.06409 3.35568,4.51078 3.35568,5.43709 0,2.37752 -5.14681,-2.6853 -9.2839,-9.13238 -2.05899,-3.20866 -3.31183,-4.41826 -3.51007,-3.38892 -0.16954,0.88037 1.01709,3.69054 2.63697,6.24482 1.61988,2.55428 3.25918,6.31765 3.6429,8.36304 0.73796,3.93369 1.88862,5.18317 4.79622,5.20816 3.28022,0.0282 9.14658,2.98661 8.06566,4.06753 -0.6751,0.6751 -1.96767,0.505 -3.92705,-0.51679 -1.6064,-0.83771 -4.13533,-1.52588 -5.61984,-1.52927 -1.8814,-0.004 -3.47191,-1.01936 -5.25,-3.35055 C 687.1479,481.42542 686,479.47887 686,478.93915 c 0,-1.0865 -4.23111,-5.32992 -5.31445,-5.32992 -0.37705,0 -0.68555,1.7449 -0.68555,3.87756 0,2.39303 -0.63495,4.40299 -1.65848,5.25 -2.08979,1.72937 -5.29055,8.67567 -5.31956,11.54452 -0.0132,1.30951 1.54611,3.51429 3.92672,5.552 5.44909,4.66422 21.46884,12.4377 29.44299,14.28703 3.63656,0.84337 7.84862,2.06639 9.36013,2.7178 4.11108,1.77175 11.2482,6.73309 11.2482,7.81913 0,1.42872 -1.01093,1.05384 -6.64512,-2.46416 z m 13.19326,-41.23728 C 731.59666,478.94648 730,476.93731 730,476.49103 c 0,-0.44628 -0.9,-1.29308 -2,-1.88178 -1.1,-0.5887 -2,-0.67868 -2,-0.19994 0,1.18908 8.9641,10.19994 10.147,10.19994 0.5221,0 -0.64739,-1.64403 -2.59886,-3.6534 z m -83.95974,-8.09154 c -1.07549,-1.07549 -1.64645,0.43075 -0.89148,2.35181 0.7082,1.80207 0.76169,1.80519 1.11193,0.0649 0.20237,-1.00555 0.10317,-2.09305 -0.22045,-2.41667 z m -0.90529,-3.44256 c -0.31922,-0.79773 -0.55618,-0.56078 -0.60416,0.60417 -0.0434,1.05416 0.19293,1.64479 0.52522,1.3125 0.33229,-0.33229 0.36781,-1.1948 0.0789,-1.91667 z m 23.9236,-1.0625 c -0.90047,-1.2375 -2.15259,-3.2625 -2.78248,-4.5 C 668.78988,461.82714 667,460.75973 667,462.17499 c 0,0.98384 2.19734,4.86587 3.78349,6.68426 2.23028,2.55685 3.74525,2.14138 1.82322,-0.5 z m 2.39329,-1.75 c -0.63912,-1.19421 -1.38176,-1.95157 -1.65031,-1.68303 -0.26855,0.26855 0.0884,1.41163 0.79317,2.54017 1.66654,2.66856 2.36841,1.96669 0.85714,-0.85714 z m 1.36163,-3.5 c -0.31659,-0.825 -0.75246,-1.5 -0.96862,-1.5 -0.21615,0 -0.39301,0.675 -0.39301,1.5 0,0.825 0.43588,1.5 0.96862,1.5 0.53273,0 0.70959,-0.675 0.39301,-1.5 z m 1.53922,-3.56128 c -1.90349,-1.17642 -2.3526,-0.34182 -0.75173,1.39697 0.78179,0.84915 1.50754,1.03878 1.72276,0.45013 0.20454,-0.55942 -0.23243,-1.39062 -0.97103,-1.8471 z m -32.21774,-0.12622 c -0.31922,-0.79773 -0.55618,-0.56078 -0.60416,0.60417 -0.0434,1.05416 0.19293,1.64479 0.52522,1.3125 0.33229,-0.33229 0.36781,-1.1948 0.0789,-1.91667 z M 693,459.76977 c 0,-0.72693 -4.27122,-3.16052 -5.54705,-3.16052 -1.30031,0 -0.16454,1.66858 1.79705,2.64009 2.90218,1.43734 3.75,1.55501 3.75,0.52043 z m -9.5826,-1.02687 c 0.29449,-0.4765 -0.35395,-1.67124 -1.44098,-2.65499 C 680.88939,455.10416 680,453.85613 680,453.31451 c 0,-1.04228 -2.98193,-3.61968 -4.25,-3.67346 -1.61866,-0.0686 -0.63457,2.95961 1.29787,3.99382 1.12632,0.60279 2.46519,2.19362 2.97525,3.53518 0.93922,2.47034 2.41652,3.1549 3.39428,1.57285 z m -38.96561,-7.40468 c -0.2339,-1.22593 -0.85599,-3.35397 -1.38244,-4.72897 -0.52644,-1.375 -1.15521,-3.4 -1.39726,-4.5 -0.24519,-1.11427 -0.48899,-0.44997 -0.55051,1.5 -0.14046,4.45192 1.70993,11.22217 2.87102,10.50457 0.48646,-0.30064 0.69309,-1.54966 0.45919,-2.7756 z m 3.22891,49.66274 c -1.55062,-0.84051 -6.05062,-2.19328 -10,-3.00614 -5.26282,-1.08319 -8.98355,-2.66962 -13.9307,-5.93972 -3.7125,-2.45398 -6.75,-5.15555 -6.75,-6.00348 0,-1.58617 2.72652,-7.44237 3.46501,-7.44237 0.2275,0 0.32845,1.88094 0.22432,4.17988 -0.18021,3.97863 0.0624,4.35732 5.03918,7.86566 3.5161,2.47864 7.25993,4.08545 11.43099,4.90606 6.47505,1.27388 15.65763,4.52403 17.2905,6.11992 1.56449,1.52905 -3.66275,1.00411 -6.7693,-0.67981 z M 721.5,496.20011 c -9.36619,-4.38708 -16.86252,-9.24878 -15.53033,-10.07212 0.59055,-0.36497 3.20146,0.63411 5.80203,2.2202 2.60056,1.58608 7.7658,4.29503 11.4783,6.01988 3.7125,1.72486 6.75,3.60974 6.75,4.18864 0,1.49649 -0.67106,1.31044 -8.5,-2.3566 z m 8.33165,-5.15034 c -2.93241,-2.50772 -7.24335,-5.77022 -9.57986,-7.25 -2.33652,-1.47979 -4.24902,-3.27958 -4.25,-3.99954 -0.002,-1.48407 0.27667,-1.34866 7.99821,3.88576 5.98503,4.05725 14.08943,11.92326 12.2846,11.92326 -0.61671,0 -3.52054,-2.05177 -6.45295,-4.55948 z m 3.37546,-19.16314 c -4.5247,-5.252 -3.99089,-6.44862 0.79289,-1.77738 2.2,2.14824 4,4.26457 4,4.70295 0,1.69428 -1.7143,0.64788 -4.79289,-2.92557 z m 19.0056,-0.55614 c -2.94119,-2.05563 -4.29612,-4.72124 -2.3998,-4.72124 1.139,0 6.64737,5.87306 6.05962,6.46081 -0.26492,0.26491 -1.91184,-0.51789 -3.65982,-1.73957 z M 735.75,465.49045 c -3.1625,-3.34131 -5.75,-6.58169 -5.75,-7.20083 0,-1.21592 12.95602,11.32716 12.98345,12.56963 0.0383,1.73385 -1.80771,0.36373 -7.23345,-5.3688 z m 34.34551,0.43661 c -2.78545,-3.12521 -4.88773,-5.85892 -4.67174,-6.07492 0.216,-0.21599 2.28697,0.86085 4.60216,2.39297 2.3152,1.53212 3.69735,2.95638 3.07145,3.16501 -0.63301,0.21101 -0.0196,1.25907 1.38231,2.36181 2.53759,1.99607 3.30545,3.83732 1.6003,3.83732 -0.50601,0 -3.19902,-2.55699 -5.98448,-5.68219 z m -53.64954,-2.19279 c -1.62877,-0.99052 -4.24088,-3.47842 -5.80468,-5.52866 -1.56379,-2.05025 -3.10335,-3.46763 -3.42124,-3.14974 -0.31789,0.31789 0.40255,1.90422 1.60098,3.52519 2.33547,3.15889 2.78085,5.02819 1.19802,5.02819 -0.53952,0 -1.24131,-1.03736 -1.55952,-2.30523 -0.31822,-1.26788 -2.19339,-3.63038 -4.16704,-5.25 C 700.86597,453.24214 695,445.20747 695,443.32602 c 0,-0.49041 2.28895,1.84769 5.08655,5.19578 2.7976,3.3481 5.2726,6.08745 5.5,6.08745 1.82125,0 -0.58507,-3.99425 -5.70121,-9.46341 -7.06164,-7.54892 -6.54255,-8.83238 0.71574,-1.76968 6.74567,6.5639 19.71942,21.24592 19.21748,21.74787 -0.22615,0.22615 -1.74382,-0.39925 -3.37259,-1.38976 z m 8.13739,-1.72494 c -2.15415,-1.87007 -3.60464,-3.71213 -3.22331,-4.09347 0.38134,-0.38133 2.31931,0.98069 4.30662,3.02672 4.65779,4.79544 3.98029,5.46259 -1.08331,1.06675 z m 10.46339,-3.51265 c -2.75645,-2.96309 -5.01961,-5.75916 -5.02924,-6.21349 -0.0235,-1.10995 4.79805,2.97189 8.36277,7.07972 4.86657,5.60804 1.99512,4.86188 -3.33353,-0.86623 z m 14.05858,-0.89841 c -5.12544,-4.05142 -16.85691,-18.57078 -15.8326,-19.59508 0.30477,-0.30478 2.44512,1.84441 4.75632,4.77596 5.4259,6.88227 10.7321,12.62963 14.84581,16.0801 5.12782,4.30109 1.90173,3.2219 -3.76953,-1.26098 z m 7.27953,1.78447 c -3.63511,-2.80555 -5.31242,-4.89032 -5.35306,-6.65344 -0.0328,-1.42482 8.28332,5.37872 9.32631,7.62995 0.88178,1.90327 -0.767,1.49805 -3.97325,-0.97651 z m 20.18004,-3.8692 c -3.81431,-2.69736 -6.21127,-4.90429 -5.3266,-4.90429 0.88468,0 3.67187,1.575 6.19376,3.5 2.52188,1.925 4.97625,3.5 5.45415,3.5 0.47789,0 1.4291,0.675 2.11379,1.5 2.52413,3.04139 -1.43805,1.35239 -8.4351,-3.59571 z m -21.39371,-2.47632 c -3.94416,-3.06461 -7.15688,-6.32711 -7.13939,-7.25 0.0279,-1.47365 0.18014,-1.49532 1.25,-0.17797 0.67001,0.825 3.77878,3.44646 6.90838,5.82546 6.13072,4.66034 8.62001,7.17454 7.10345,7.17454 -0.52319,0 -4.17829,-2.50741 -8.12244,-5.57203 z m -43.93585,-1.62388 c -2.84727,-3.40775 -4.95675,-6.41601 -4.68774,-6.68502 0.71138,-0.71139 7.69615,6.33069 9.78274,9.863 2.9514,4.99632 0.41082,3.41165 -5.095,-3.17798 z M 486,455.60925 c 0,-0.55 0.47656,-1 1.05902,-1 0.58246,0 0.7809,0.45 0.44098,1 -0.33992,0.55 -0.81648,1 -1.05902,1 -0.24254,0 -0.44098,-0.45 -0.44098,-1 z m 135,-1.05902 c 0,-1.13246 0.45,-1.7809 1,-1.44098 0.55,0.33992 1,1.26648 1,2.05902 0,0.79254 -0.45,1.44098 -1,1.44098 -0.55,0 -1,-0.92656 -1,-2.05902 z m 30.72917,1.45485 C 651.32812,455.60404 651,454.58592 651,453.74258 c 0,-1.12559 0.29583,-1.2375 1.1125,-0.42083 0.61187,0.61187 0.94,1.63 0.72917,2.2625 -0.21084,0.6325 -0.71146,0.82187 -1.1125,0.42083 z m 6,0 c -0.40105,-0.40104 -0.71549,-1.66666 -0.69876,-2.8125 0.0281,-1.92359 0.11018,-1.94626 1.07077,-0.29565 1.11861,1.92211 0.83248,4.31265 -0.37201,3.10815 z M 482,451.72403 c 0,-0.53823 1.34675,-1.93756 2.99277,-3.10963 1.6468,-1.17263 2.75204,-1.54056 2.4575,-0.8181 C 486.73366,449.55405 482,452.96535 482,451.72403 Z m 9.73333,-1.23887 c 0.67834,-0.68342 1.48524,-0.99067 1.79313,-0.68278 0.30789,0.30789 -0.24711,0.86705 -1.23333,1.24258 -1.4252,0.54268 -1.54006,0.42782 -0.5598,-0.5598 z m 70.14341,-5.6343 c 1.19015,-2.33289 2.61632,-4.24161 3.16926,-4.24161 1.29291,0 -1.37236,5.19604 -3.62365,7.06444 -1.38604,1.15031 -1.30006,0.61617 0.45439,-2.82283 z m 62.87326,1.18143 c -0.4125,-0.416 -0.75,-1.67137 -0.75,-2.78971 0,-1.47178 0.30207,-1.73126 1.09378,-0.93955 0.60158,0.60158 0.93908,1.85695 0.75,2.78971 -0.18908,0.93276 -0.68128,1.35556 -1.09378,0.93955 z M 650,445.60925 c 0,-0.55 0.45,-1 1,-1 0.55,0 1,0.45 1,1 0,0.55 -0.45,1 -1,1 -0.55,0 -1,-0.45 -1,-1 z m -210,-1.51242 c 0,-0.82631 11.12009,-7.70083 11.63072,-7.19019 0.82663,0.82663 -7.93122,7.70261 -9.81072,7.70261 -1.001,0 -1.82,-0.23059 -1.82,-0.51242 z m 27.64583,-1.50001 c 1.18021,-1.22302 2.75521,-2.0181 3.5,-1.76682 0.8173,0.27573 -0.0334,1.15732 -2.14583,2.22368 l -3.5,1.76682 z M 502.5,441.49413 c 6.4991,-7.31868 12.03231,-11.89661 14.32673,-11.85328 1.75398,0.0331 1.91353,-0.12947 -9.67417,9.85898 -6.52225,5.62209 -8.70491,6.55768 -4.65256,1.9943 z m 256.55702,0.0415 c -2.33368,-1.69051 -3.98434,-3.33236 -3.66815,-3.64856 0.71048,-0.71047 8.61113,4.66439 8.61113,5.85821 0,1.28258 -0.31887,1.14003 -4.94298,-2.20965 z m -37.81693,-1.93252 c -3.36942,-4.0134 -3.83532,-4.99386 -2.37298,-4.99386 0.93778,0 6.5001,7.96613 5.94789,8.51833 -0.18415,0.18415 -1.79286,-1.40188 -3.57491,-3.5245 z m -186.21785,1.25614 c 0.0273,-2.15297 3.59423,-6.96687 4.49482,-6.06627 0.82064,0.82064 -2.42914,7.81627 -3.631,7.81627 -0.48733,0 -0.87605,-0.7875 -0.86382,-1.75 z m 43,1.45034 c -0.0301,-1.08087 2.90822,-6.70034 3.50344,-6.70034 0.26088,0 0.46431,0.5625 0.45208,1.25 -0.0244,1.37349 -3.91964,6.74072 -3.95552,5.45034 z m 7.06387,-4.95034 C 587.14965,432.09237 589,429.21637 589,431.2759 c 0,1.92882 -4.24758,11.33335 -5.11873,11.33335 -0.46865,0 0.0735,-2.3625 1.20484,-5.25 z m 31.00583,-8.49762 c 0.11741,-7.56119 0.56728,-14.87369 0.99971,-16.25 0.4372,-1.39148 0.70236,4.71093 0.59729,13.74607 -0.10392,8.93665 -0.55379,16.24915 -0.99971,16.25 -0.44592,8.5e-4 -0.7147,-6.18488 -0.59729,-13.74607 z M 558,440.69437 c 0,-0.69493 1.92054,-3.13587 4.26786,-5.42432 2.34732,-2.28844 6.04082,-7.1983 8.20778,-10.9108 3.65737,-6.26593 6.32782,-9.04674 4.80157,-5 -1.16309,3.08384 -7.10463,12.66599 -9.47897,15.2871 C 561.75441,439.11047 558,442.02224 558,440.69437 Z m -14,-0.97434 c 0,-0.48906 0.88503,-1.95156 1.96673,-3.25 1.88519,-2.2629 1.96811,-2.27579 2,-0.31078 0.0334,2.05646 -1.66993,4.45 -3.16673,4.45 -0.44,0 -0.8,-0.40015 -0.8,-0.88922 z m 58,-2.1698 c 0,-1.13246 0.45,-1.7809 1,-1.44098 0.55,0.33992 1,1.26648 1,2.05902 0,0.79254 -0.45,1.44098 -1,1.44098 -0.55,0 -1,-0.92656 -1,-2.05902 z m 47.22289,0.82759 c -0.58415,-0.70387 -1.37206,-2.51474 -1.7509,-4.02416 -1.02884,-4.09922 1.15865,-3.3936 2.55012,0.82259 1.26758,3.8408 0.91234,5.26387 -0.79922,3.20157 z m 59.73247,-0.9056 c -0.80045,-0.77269 -3.81786,-2.90486 -6.70536,-4.73817 -6.54763,-4.15717 -6.93031,-6.17433 -0.5,-2.63559 6.23031,3.42868 9.51946,6.20241 9.04453,7.62721 -0.27001,0.81002 -0.81535,0.73487 -1.83917,-0.25345 z M 595,435.22728 c 0,-0.825 0.45,-1.77811 1,-2.11803 0.55,-0.33992 1,0.057 1,0.88197 0,0.825 -0.45,1.77811 -1,2.11803 -0.55,0.33992 -1,-0.057 -1,-0.88197 z m 134.5,0.38197 c -0.33992,-0.55 -0.16803,-1 0.38197,-1 0.55,0 1.27811,0.45 1.61803,1 0.33992,0.55 0.16803,1 -0.38197,1 -0.55,0 -1.27811,-0.45 -1.61803,-1 z M 474,434.31645 c 0,-0.76239 1.125,-1.89875 2.5,-2.52525 3.19479,-1.45564 3.17643,-0.22001 -0.0314,2.11473 -1.90678,1.38779 -2.4686,1.48122 -2.4686,0.41052 z m 29,0.41828 c 0,-0.54591 3.25566,-3.83496 7.2348,-7.30902 3.97914,-3.47405 11.61388,-10.79422 16.96609,-16.26704 10.33092,-10.56372 14.57866,-12.76262 5.61481,-2.90658 -6.7642,7.43744 -10.6908,11.26867 -19.90093,19.41754 -8.31603,7.35778 -9.91477,8.49702 -9.91477,7.0651 z m 118.59915,-2.37548 c -1.28401,-8.49083 -1.46676,-12.71379 -0.57406,-13.26551 0.56412,-0.34864 1.0046,1.00247 1.04538,3.20649 0.0388,2.09496 0.29358,5.94652 0.56628,8.55902 0.55657,5.3319 -0.27609,6.53563 -1.0376,1.5 z m 59.31491,-4.59818 c -10.10595,-10.78996 -11.22876,-12.17045 -10.4953,-12.90391 0.37907,-0.37907 2.12742,1.0447 3.88522,3.16393 1.75781,2.11923 5.78352,6.35976 8.94602,9.42341 3.1625,3.06364 5.75,5.92902 5.75,6.3675 0,1.91604 -2.08622,0.35486 -8.08594,-6.05093 z M 492,432.80542 c 0,-1.3272 6.58001,-7.28283 7.27666,-6.58618 0.35484,0.35484 -0.78627,2.16275 -2.5358,4.01759 C 493.63049,433.53442 492,434.41782 492,432.80542 Z m 40.0246,0.12122 c 0.0332,-1.10265 6.9754,-4.50506 6.9754,-3.41867 0,0.47101 -0.5625,1.30642 -1.25,1.85645 -1.80624,1.44507 -5.7543,2.52233 -5.7254,1.56222 z m 9.51234,-1.73342 c 0.87067,-1.32882 2.34279,-2.70758 3.27137,-3.0639 0.99065,-0.38015 0.47532,0.61822 -1.24709,2.41603 -3.53616,3.69096 -4.1461,3.88617 -2.02428,0.64787 z m 69.21306,1.8453 c -0.4125,-0.41943 -0.75,-2.4501 -0.75,-4.5126 0,-2.0625 -0.50517,-3.91839 -1.1226,-4.1242 -1.30211,-0.43404 -0.21648,-10.79247 1.13112,-10.79247 0.95105,0 2.33994,13.1377 1.83378,17.34594 -0.18826,1.56527 -0.6798,2.50277 -1.0923,2.08333 z m 129.40914,-3.50625 c -3.65157,-3.57943 -5.11978,-5.92302 -3.71066,-5.92302 0.5368,0 4.12277,3.4855 7.47583,7.26637 3.7643,4.24458 0.88874,3.21863 -3.76517,-1.34335 z m 8.3146,2.05573 c -3.50881,-2.25024 -20.932,-20.85382 -20.20838,-21.57745 0.46076,-0.46075 5.32101,4.27584 15.2724,14.88381 2.22077,2.36729 5.11862,5.06123 6.43967,5.98653 3.40546,2.38528 2.08288,3.00723 -1.50369,0.70711 z m 34.50601,-2.23076 c -3.58614,-2.3364 -7.83922,-4.92299 -9.45129,-5.74799 -3.15458,-1.6144 -19.02914,-16 -17.65605,-16 1.34152,0 8.6522,5.58218 10.72034,8.18568 1.92932,2.42873 10.63562,8.81432 12.01771,8.81432 0.87768,0 13.38954,8.05258 13.38954,8.61746 0,1.26788 -3.32272,-0.15749 -9.02025,-3.86947 z m -180.94376,1.75201 c -0.0137,-1.1 0.40212,-3.575 0.92395,-5.5 0.52184,-1.925 1.1782,-5.48638 1.45859,-7.91417 0.2804,-2.42779 0.97593,-4.88029 1.54564,-5.45 1.39874,-1.39874 1.34656,-0.49479 -0.54794,9.49218 -1.62664,8.57493 -3.33145,13.30167 -3.38024,9.37199 z m 118.60238,-1 c -0.31658,-0.825 -0.13972,-1.5 0.39301,-1.5 0.53274,0 0.96862,0.675 0.96862,1.5 0,0.825 -0.17686,1.5 -0.39301,1.5 -0.21616,0 -0.65203,-0.675 -0.96862,-1.5 z M 452,428.76424 c 0,-1.32642 3.93744,-4.55089 4.66667,-3.82166 0.35992,0.35993 -0.16258,1.55717 -1.16112,2.66054 C 453.61884,429.68791 452,430.2241 452,428.76424 Z m 67,-0.48763 c 0,-1.80515 6.40017,-6.82387 13.04786,-10.23154 2.99868,-1.53715 7.48825,-4.66223 9.97682,-6.94463 2.48857,-2.2824 5.86357,-4.98073 7.5,-5.99629 4.63579,-2.87697 21.39803,-20.59973 23.124,-24.44909 1.78025,-3.97039 10.65737,-13.62766 11.15487,-12.13517 0.1826,0.5478 -0.8235,2.69646 -2.23578,4.77481 -1.41227,2.07835 -2.56777,4.58848 -2.56777,5.57807 0,0.98959 -0.67011,2.0564 -1.48914,2.37069 -0.81903,0.31429 -1.94875,2.27829 -2.5105,4.36445 -0.75942,2.82026 -3.11934,5.7406 -9.20204,11.38726 -4.49937,4.17684 -9.91754,8.45358 -12.04037,9.50388 -2.30025,1.13807 -3.3341,2.1223 -2.55882,2.43602 0.91246,0.36923 0.55443,1.13898 -1.19913,2.57806 -1.375,1.12841 -2.8375,2.06165 -3.25,2.07388 -0.4125,0.0122 -1.66641,0.93865 -2.78647,2.05871 -1.12007,1.12007 -2.41908,1.80002 -2.8867,1.51101 -0.46762,-0.289 -1.4132,0.15289 -2.10128,0.98198 -0.68809,0.8291 -2.87658,2.26581 -4.86331,3.1927 -1.98673,0.9269 -5.74512,3.16859 -8.35198,4.98155 C 520.63114,429.88004 519,430.35384 519,428.27661 Z m 74,-1.04933 c 0,-1.375 0.45,-2.77811 1,-3.11803 0.56481,-0.34907 1,0.46994 1,1.88197 0,1.375 -0.45,2.77811 -1,3.11803 -0.56481,0.34907 -1,-0.46994 -1,-1.88197 z m 36,0.88197 c 0,-0.825 0.45,-1.5 1,-1.5 0.55,0 1,0.675 1,1.5 0,0.825 -0.45,1.5 -1,1.5 -0.55,0 -1,-0.675 -1,-1.5 z m 40.5,0.5 c -0.33992,-0.55 -0.14148,-1 0.44098,-1 0.58246,0 1.05902,0.45 1.05902,1 0,0.55 -0.19844,1 -0.44098,1 -0.24254,0 -0.7191,-0.45 -1.05902,-1 z m -206.13286,-2.30881 c 1.02692,-0.65515 6.40004,-4.21808 11.94025,-7.9176 9.16287,-6.11859 13.33316,-7.97637 9.63309,-4.29136 -2.70357,2.69257 -20.29348,13.51794 -21.86919,13.45896 -1.27784,-0.0478 -1.22259,-0.28127 0.29585,-1.25 z m 24.39864,-2.7205 c 1.79617,-1.63388 3.82117,-2.9524 4.5,-2.93005 0.67882,0.0224 -0.32378,1.37235 -2.22801,3 -4.51613,3.8602 -6.52456,3.79836 -2.27199,-0.07 z M 557.5,424.60925 c 0.33992,-0.55 0.81648,-1 1.05902,-1 0.24254,0 0.44098,0.45 0.44098,1 0,0.55 -0.47656,1 -1.05902,1 -0.58246,0 -0.7809,-0.45 -0.44098,-1 z m 130.72286,-1.94363 C 686.45029,421.04662 685,419.35497 685,418.90638 c 0,-0.44858 -3.59217,-4.63645 -7.98261,-9.30637 -4.39044,-4.66992 -7.99044,-9.16129 -8,-9.98082 -0.0203,-1.73807 14.33843,13.20778 16.50448,17.17936 0.80669,1.47911 2.25678,3.27911 3.22242,4 2.45066,1.82951 4.68221,4.8107 3.60102,4.8107 -0.49477,0 -2.34988,-1.32463 -4.12245,-2.94363 z m -60.06497,-0.0564 c 0,-1.375 0.22698,-1.9375 0.50439,-1.25 0.27741,0.6875 0.27741,1.8125 0,2.5 -0.27741,0.6875 -0.50439,0.125 -0.50439,-1.25 z M 546,422.48995 c 0,-1.35713 12.17578,-13.03828 12.86842,-12.34565 0.4515,0.4515 -10.68701,12.77543 -12.01912,13.29825 -0.46711,0.18334 -0.8493,-0.24533 -0.8493,-0.9526 z m 162.6989,-2.79226 c -3.5095,-3.88459 -6.24055,-8.08847 -5.25468,-8.08847 0.6531,0 8.78854,8.75981 9.85547,10.61185 1.61484,2.80313 -1.16708,1.27734 -4.60079,-2.52338 z m -242.1945,-0.0956 c 0.93043,-1.50547 6.14891,-4.00625 6.86523,-3.28993 0.34275,0.34276 -0.73607,1.44981 -2.39739,2.46012 -3.31001,2.01293 -5.44401,2.40928 -4.46784,0.82981 z m 131.01768,-3.74287 c 1.29121,-7.90267 1.66543,-9.25 2.56919,-9.25 0.8434,0 0.54722,4.72874 -0.6733,10.75 -0.79742,3.93398 -2.55636,2.54233 -1.89589,-1.5 z m 37.54821,1 c 0.0623,-2.43684 0.16815,-2.52225 0.92971,-0.75 1.17371,2.73138 1.17371,3.5 0,3.5 -0.55,0 -0.96837,-1.2375 -0.92971,-2.75 z m 25.11304,1.53333 c -1.40079,-1.40079 -1.545,-2.78333 -0.29032,-2.78333 0.91646,0 2.42476,3.01556 1.81386,3.62646 -0.18711,0.18711 -0.8727,-0.19229 -1.52354,-0.84313 z M 496,417.60922 c 0,-0.55 0.45,-1 1,-1 0.55,0 1,0.45 1,1 0,0.55 -0.45,1 -1,1 -0.55,0 -1,-0.45 -1,-1 z m 9,0 c 0,-0.55 0.45,-1 1,-1 0.55,0 1,0.45 1,1 0,0.55 -0.45,1 -1,1 -0.55,0 -1,-0.45 -1,-1 z m 4,-1.54695 c 0,-1.15545 24.0832,-24.70318 24.66742,-24.11896 0.78239,0.78239 -9.4511,12.16919 -16.37939,18.22534 -6.29606,5.5035 -8.28803,6.91999 -8.28803,5.89362 z m 73.16667,-0.27549 C 586.18214,405.87931 589,401.33192 589,404.75931 c 0,1.82303 -5.32422,11.84991 -6.29224,11.84991 -0.48094,0 -0.72443,-0.3701 -0.54109,-0.82244 z m -10.12096,-6.26716 c 3.01684,-5.91349 9.29367,-14.39225 9.7162,-13.12466 0.397,1.191 -9.7946,17.02731 -11.03223,17.14254 -0.42368,0.0395 0.16853,-1.7686 1.31603,-4.01788 z m -64.12383,-1.51503 c 6.66144,-5.86828 8.07852,-6.78105 8.07619,-5.20207 -10e-4,0.71868 -2.13857,2.71667 -4.75,4.43996 -7.30182,4.81849 -8.15195,5.01327 -3.32619,0.76211 z m 139.70449,-8.45822 c -3.23049,-6.61278 -5.64583,-12.25102 -5.36741,-12.52944 0.45681,-0.45681 7.60369,11.93847 8.99021,15.59229 0.31307,0.825 1.29111,3.1875 2.17344,5.25 0.88233,2.0625 1.26069,3.74108 0.84081,3.73019 -0.41988,-0.0109 -3.40655,-5.43027 -6.63705,-12.04304 z M 633,408.5502 c 0,-1.13246 0.45,-1.7809 1,-1.44098 0.55,0.33992 1,1.26648 1,2.05902 0,0.79254 -0.45,1.44098 -1,1.44098 -0.55,0 -1,-0.92656 -1,-2.05902 z m 27.41425,-0.63323 C 650.00285,393.63801 642,380.45504 642,377.58345 c 0,-2.18558 2.21111,0.35245 4.0554,4.655 1.03943,2.4249 5.30183,9.38887 9.47201,15.47551 4.17018,6.08663 7.43633,11.50403 7.25812,12.03867 -0.17822,0.53465 -1.24529,-0.2914 -2.37128,-1.83566 z M 525,408.28726 c 0,-1.56494 4.62071,-5.39066 5.47684,-4.53454 0.55552,0.55552 -0.50697,1.95868 -3.22684,4.26149 -1.9693,1.66733 -2.25,1.70139 -2.25,0.27305 z m 35,0.39233 c 0,-0.9388 3.11941,-3.07037 4.49328,-3.07037 1.1034,0 -0.54187,1.95564 -2.54897,3.02981 -1.26917,0.67923 -1.94431,0.69332 -1.94431,0.0406 z m 46.49213,-1.08311 c -0.38948,-0.63019 -0.43661,-3.92263 -0.10474,-7.31653 0.33188,-3.3939 0.67858,-8.96244 0.77044,-12.37453 0.15302,-5.68338 1.126,-9.43454 2.14436,-8.26724 0.49972,0.5728 -1.13271,28.13489 -1.69995,28.70213 -0.22108,0.22108 -0.72063,-0.11364 -1.11011,-0.74383 z M 489.55,406.8092 c 7.46027,-6.28251 12.45,-9.6413 12.45,-8.38061 0,1.28447 -10.35752,9.18063 -12.04237,9.18063 -0.80383,0 -0.97011,-0.32635 -0.40763,-0.80002 z m 201.21082,-4.44998 c -9.08131,-10.85089 -11.97011,-14.75 -10.9281,-14.75 1.37275,0 12.60948,13.02066 14.66189,16.98958 2.2324,4.31698 1.2708,3.7402 -3.73379,-2.23958 z m 30.34752,3.13892 c -1.31542,-1.06641 -2.09042,-2.24018 -1.72222,-2.60837 0.36819,-0.36819 1.64444,0.30556 2.8361,1.49723 2.80848,2.80848 1.98861,3.62633 -1.11388,1.11114 z m -174.11748,-6.37788 c 0.67967,-0.81894 1.64211,-1.23785 2.13876,-0.9309 1.27647,0.7889 0.0558,2.41989 -1.81108,2.41989 -1.27119,0 -1.33244,-0.27832 -0.32768,-1.48899 z m -29.88299,-0.54517 C 517.22674,396.95978 528,386.74009 528,388.24264 c 0,0.51421 -2.475,3.37919 -5.5,6.36661 -3.025,2.98742 -5.45146,4.77205 -5.39213,3.96584 z M 631,398.05023 c 0,-0.85746 0.45,-1.2809 1,-0.94098 0.55,0.33992 1,1.04148 1,1.55902 0,0.51754 -0.45,0.94098 -1,0.94098 -0.55,0 -1,-0.70156 -1,-1.55902 z m -13,-3.38196 c 0,-1.61754 0.405,-3.19129 0.9,-3.49722 0.495,-0.30592 0.9,1.01752 0.9,2.94099 0,1.92346 -0.405,3.49721 -0.9,3.49721 -0.495,0 -0.9,-1.32344 -0.9,-2.94098 z m 77.08396,-0.4724 c -1.81961,-1.87735 -3.14061,-3.91666 -2.93557,-4.53178 0.20504,-0.61513 2.37423,0.92089 4.82041,3.41337 2.69891,2.74999 3.85311,4.53179 2.93557,4.53179 -0.83162,0 -3.00081,-1.53602 -4.82041,-3.41338 z m 15.42159,1.41951 c -1.65677,-1.83071 -1.66806,-2.00613 -0.12915,-2.00613 0.9275,0 1.95284,0.69441 2.27852,1.54313 0.93115,2.42653 -0.15973,2.66152 -2.14937,0.463 z m -169.48903,-0.68804 c 0.027,-1.33546 9.01599,-9.61891 9.69807,-8.93683 0.34465,0.34464 -0.46264,1.79385 -1.79398,3.22045 -3.05524,3.27387 -7.9259,6.79642 -7.90409,5.71638 z M 511,393.70306 c 0,-0.49841 2.25,-2.52266 5,-4.49834 6.1462,-4.41561 6.62359,-3.05978 0.64701,1.83758 C 512.15927,394.71966 511,395.26589 511,393.70306 Z m 72,-0.0938 c 0,-0.55 0.47656,-1 1.05902,-1 0.58246,0 0.7809,0.45 0.44098,1 -0.33992,0.55 -0.81648,1 -1.05902,1 -0.24254,0 -0.44098,-0.45 -0.44098,-1 z m 44.55974,-9.618 c -0.59265,-2.3613 -0.10982,-4.3532 0.79958,-3.29867 0.94373,1.09433 1.56979,5.91667 0.76814,5.91667 -0.50085,0 -1.20633,-1.1781 -1.56772,-2.618 z m 40.02435,0.10599 c -0.89908,-1.37216 -3.42563,-3.62542 -5.61457,-5.00723 C 658.29039,376.76749 652,369.42889 652,367.45922 c 0,-1.74461 1.56312,-0.67278 3.5,2.39994 1.1,1.74508 4.10123,4.76524 6.66941,6.71148 5.44486,4.12629 9.25635,8.65745 7.95757,9.46014 -0.49951,0.30872 -1.64382,-0.56137 -2.54289,-1.93353 z M 539,384.60926 c 0,-0.55 0.61889,-1 1.37532,-1 0.75643,0 2.98684,-1.89458 4.95648,-4.21019 1.96964,-2.3156 3.93824,-3.84636 4.37468,-3.40168 0.43644,0.44468 -1.38752,2.78927 -4.05323,5.21019 C 540.83517,385.58323 539,386.52152 539,384.60926 Z m 59,-1.44098 c 0,-0.79254 0.45,-1.7191 1,-2.05902 0.55,-0.33992 1,0.30852 1,1.44098 0,1.13246 -0.45,2.05902 -1,2.05902 -0.55,0 -1,-0.64844 -1,-1.44098 z m -44.89212,-1.59498 c 0.85981,-1.29494 2.18974,-2.56325 2.9554,-2.81847 1.1065,-0.36883 1.07138,0.019 -0.17116,1.89039 -0.85981,1.29494 -2.18974,2.56325 -2.9554,2.81847 -1.1065,0.36883 -1.07138,-0.019 0.17116,-1.89039 z m 143.04581,-5.56225 c -2.39047,-2.42098 -5.09472,-4.40179 -6.00945,-4.40179 -0.91473,0 -2.22932,-0.90658 -2.9213,-2.01463 -0.94486,-1.51296 -1.89157,-1.85566 -3.8018,-1.37622 -2.04109,0.51228 -2.65337,0.21881 -3.09902,-1.48537 -0.30546,-1.16808 -1.0138,-2.12378 -1.57408,-2.12378 -1.24704,0 -5.74804,-4.73864 -5.74804,-6.05152 0,-0.52166 0.40478,-0.94848 0.89951,-0.94848 1.1278,0 10.55765,6.04431 14.73774,9.44655 1.72548,1.4044 3.4545,2.55345 3.84227,2.55345 2.12751,0 9.49356,7.93597 9.51389,10.25 0.0133,1.51181 -1.59133,0.45441 -5.83972,-3.84821 z M 591,377.50039 c 0,-0.82988 0.6983,-2.38238 1.55178,-3.45 1.49132,-1.8655 1.5259,-1.84373 0.8876,0.55887 C 592.6197,377.6946 591,379.61425 591,377.50039 Z m 27,-0.39113 c 0,-0.825 0.45,-1.5 1,-1.5 0.55,0 1,0.675 1,1.5 0,0.825 -0.45,1.5 -1,1.5 -0.55,0 -1,-0.675 -1,-1.5 z m 58.45888,-2.56653 c -0.36253,-0.58659 -0.41903,-1.30665 -0.12555,-1.60014 0.71632,-0.71631 2.66667,0.54583 2.66667,1.72569 0,1.27797 -1.72641,1.19267 -2.54112,-0.12555 z M 601,373.55208 c 0,-2.62099 2.32997,-9.94282 3.16403,-9.94282 0.83996,0 0.42134,4.72952 -0.81874,9.25 C 602.82707,374.74835 601,375.28808 601,373.55208 Z m 24,-1.94282 c 0,-1.1 0.17252,-2 0.38337,-2 0.21085,0 0.61872,0.9 0.90638,2 0.28766,1.1 0.11514,2 -0.38337,2 -0.49851,0 -0.90638,-0.9 -0.90638,-2 z m -74,-0.2267 c 0,-1.82294 1.77282,-3.33381 2.75701,-2.34963 0.34317,0.34317 -0.13677,1.38466 -1.06653,2.31443 C 551.13153,372.9063 551,372.90904 551,371.38256 Z m 57,0.2267 c 0,-0.55 0.45,-1 1,-1 0.55,0 1,0.45 1,1 0,0.55 -0.45,1 -1,1 -0.55,0 -1,-0.45 -1,-1 z m -36.66284,-1.56377 c -0.33005,-0.86007 -0.0909,-2.68125 0.53138,-4.04705 1.67655,-3.67962 1.41706,-4.38687 -1.61854,-4.41142 l -2.75,-0.0222 2.5,-1.95553 c 1.8228,-1.42582 2.06741,-1.96155 0.90301,-1.97776 -0.87834,-0.0122 -2.6347,0.87776 -3.90301,1.97776 -1.26831,1.1 -3.04717,2 -3.95301,2 -0.90584,0 -2.20573,0.55874 -2.88863,1.24164 -0.98886,0.98886 -1.42472,0.94541 -2.1409,-0.21339 -0.77825,-1.25924 -1.38276,-1.22447 -4.49229,0.25836 -3.86404,1.84263 -6.52517,2.20945 -6.52517,0.89944 0,-1.74406 13.5975,-8.42507 17.87484,-8.78265 2.40616,-0.20115 4.97523,-0.86401 5.70904,-1.47302 1.47816,-1.22676 7.41612,-0.32518 7.41612,1.12602 0,0.49362 -1.125,1.63462 -2.5,2.53556 -2.79145,1.82903 -3.26635,3.40804 -1.025,3.40804 1.12949,0 1.32338,0.75809 0.82773,3.23636 -0.74488,3.72438 -0.90449,3.79788 8.6567,-3.98636 2.87109,-2.3375 5.62183,-4.25 6.11275,-4.25 0.49093,0 3.83528,-1.80112 7.43189,-4.00249 6.27851,-3.84287 6.98707,-4.03149 17.76761,-4.72959 12.50116,-0.80951 32.61955,-0.71002 33.49522,0.16565 1.38883,1.38883 -1.52504,2.06643 -8.88623,2.06643 -5.86834,0 -8.18014,0.37987 -8.84736,1.45379 -0.76415,1.22992 -1.2848,1.24958 -3.3811,0.12767 -2.22568,-1.19115 -3.06456,-1.00834 -8.24262,1.79621 -6.44722,3.49197 -7.40959,3.72069 -7.40959,1.761 0,-1.90823 -4.43317,-0.92249 -6.59515,1.46647 C 603.1728,358.18082 602,358.1159 602,355.52596 c 0,-1.14584 -0.3375,-1.93334 -0.75,-1.75 -8.30251,3.69 -14.71775,7.54698 -16.45016,9.89019 -1.19677,1.61873 -2.7318,2.94314 -3.41117,2.94314 -0.67937,0 -2.57221,1.125 -4.2063,2.5 -3.43107,2.88705 -5.00017,3.13838 -5.84521,0.93623 z m 21.70476,0.63477 c -0.0634,-2.16144 2.24959,-8.071 3.15897,-8.071 0.43951,0 0.78025,0.5625 0.75719,1.25 -0.0623,1.85908 -3.86731,8.48641 -3.91616,6.821 z M 563,369.79958 c 0,-0.53699 0.7126,-1.24979 1.58356,-1.58401 0.97391,-0.37373 1.43108,-0.15024 1.1875,0.58051 -0.49828,1.49484 -2.77106,2.31789 -2.77106,1.0035 z m 73.75,0.23272 c -0.4125,-0.416 -0.75,-1.67137 -0.75,-2.78971 0,-1.47178 0.30207,-1.73126 1.09378,-0.93955 0.60158,0.60158 0.93908,1.85695 0.75,2.78971 -0.18908,0.93276 -0.68128,1.35556 -1.09378,0.93955 z m -13.5483,-5.14416 c -1.44355,-4.81813 -1.53245,-7.27888 -0.26297,-7.27888 1.01952,0 2.52255,8.11617 1.86714,10.08239 -0.22136,0.66407 -0.94323,-0.59751 -1.60417,-2.80351 z m 11.38125,-1.14467 c -0.43077,-0.697 -0.51316,-1.53733 -0.18309,-1.86741 0.89497,-0.89496 1.87077,0.4213 1.38739,1.87145 -0.33872,1.01617 -0.57427,1.01538 -1.2043,-0.004 z m 12.6252,-3.73928 c -5.59384,-6.5268 -5.36757,-7.77144 0.34437,-1.89428 2.50389,2.57631 4.39465,5.15783 4.20169,5.73671 -0.19296,0.57888 -2.23869,-1.15022 -4.54606,-3.84243 z m -68.79837,-1.29524 c 0.94586,-1.04516 2.70311,-2.14562 3.90498,-2.44546 1.84589,-0.4605 1.71936,-0.16617 -0.81476,1.89534 -3.56115,2.89699 -5.53156,3.24777 -3.09022,0.55012 z m 55.31939,1.29614 C 633.32812,359.60405 633,358.58593 633,357.74259 c 0,-1.12559 0.29583,-1.2375 1.1125,-0.42083 0.61187,0.61187 0.94,1.63 0.72917,2.2625 -0.21084,0.6325 -0.71146,0.82187 -1.1125,0.42083 z m 29.51278,-3.30621 c -2.86232,-2.15071 -5.77521,-4.1141 -6.47309,-4.36309 -0.69787,-0.249 -0.94041,-0.80528 -0.53898,-1.23618 0.64741,-0.69492 14.77012,7.98047 14.77012,9.07308 0,1.38255 -3.20445,-0.0523 -7.75805,-3.47381 z M 650,345.71625 c 0,-1.51442 3.04178,-2.155 5.07244,-1.06822 2.77652,1.48595 2.39546,1.96123 -1.57244,1.96123 -1.925,0 -3.5,-0.40186 -3.5,-0.89301 z m -32.573,-2.62846 c 1.05985,-0.80183 2.17182,-1.21305 2.47104,-0.91382 0.62769,0.62769 -1.9121,2.41268 -3.39804,2.38817 -0.55,-0.009 -0.13285,-0.67253 0.927,-1.47435 z m 22.073,-0.47853 c -1.68588,-0.72445 -1.49883,-0.87047 1.19098,-0.92971 1.75504,-0.0387 3.4691,0.37971 3.80902,0.92971 0.74125,1.19936 -2.20893,1.19936 -5,0 z m 44.8232,186.43991 c -13.40305,-14.23841 -16.68221,-16.64798 -23.20479,-17.05116 -2.54013,-0.15702 -7.76841,-0.9759 -11.61841,-1.81975 -3.85,-0.84385 -11.73737,-1.54209 -17.52749,-1.55164 -11.36626,-0.0187 -11.8953,-0.20295 -19.22539,-6.69404 -2.86268,-2.53501 -4.66308,-3.32332 -7.59004,-3.32332 -5.08667,0 -18.1828,3.40139 -24.55299,6.37702 -2.80725,1.31132 -6.05588,2.67399 -7.21917,3.02816 -1.1633,0.35418 -4.9132,3.5579 -8.33312,7.11939 -3.41991,3.56148 -6.40563,6.47543 -6.63491,6.47543 -1.61323,0 0.41902,-3.20457 5.33311,-8.40959 4.35039,-4.60794 7.14782,-6.60679 11.49263,-8.21185 3.15845,-1.1668 6.33736,-2.61502 7.06424,-3.21827 0.72687,-0.60326 3.99269,-1.76248 7.25736,-2.57604 C 606.59138,494.95028 607,494.74946 607,490.62432 c 0,-1.50703 1.25485,-4.31908 2.78856,-6.249 2.78292,-3.50185 2.78666,-3.52753 1.85039,-12.70444 -0.54378,-5.32982 -1.27281,-8.65404 -1.73419,-7.90752 -1.66522,2.69438 -2.89436,-1.94649 -1.43129,-5.4041 1.51683,-3.58465 -1.04631,-1.57502 -2.88435,2.26147 -1.05099,2.19369 -2.28849,3.98853 -2.75,3.98853 -0.46152,0 -0.84913,0.7875 -0.86136,1.75 -0.0182,1.43439 -0.35725,1.3142 -1.8798,-0.66638 l -1.85757,-2.41639 -0.68758,2.16639 C 596.70063,468.12786 594,468.30863 594,465.68069 c 0,-5.57369 -6.50318,-5.84052 -10.80946,-0.44352 -2.70189,3.38625 -5.48528,4.32224 -6.75308,2.27091 -0.40008,-0.64735 -1.57088,0.48601 -2.84083,2.75 -1.18814,2.11815 -2.76257,3.85118 -3.49873,3.85118 -0.73616,0 -2.1221,2.00425 -3.07987,4.4539 -0.95777,2.44964 -2.30087,4.64038 -2.98466,4.86831 -1.40959,0.46986 -0.73351,-2.44863 1.65398,-7.13986 1.416,-2.78232 1.405,-2.80215 -0.87669,-1.58127 -4.33386,2.31895 -12.03411,10.38952 -14.17464,14.85632 -1.82143,3.80092 -2.7116,4.57668 -6.0441,5.26722 -4.51136,0.93482 -16.81839,7.47565 -24.09192,12.80416 -7.2322,5.29822 -10.90474,6.97519 -15.20034,6.94081 -4.34297,-0.0348 -3.00087,-1.27059 2.70034,-2.48653 1.925,-0.41055 6.2,-2.66409 9.5,-5.00785 9.16023,-6.50588 16.3929,-10.59923 23,-13.0169 4.5778,-1.67511 6.35555,-2.91311 7.5,-5.22291 2.2679,-4.5772 5.93311,-8.52769 11.78632,-12.70367 2.90748,-2.07434 5.95654,-5.06758 6.77568,-6.65163 1.6933,-3.27447 1.00654,-3.68744 -1.87936,-1.1301 -1.30437,1.15586 -2.11103,1.36236 -2.376,0.60823 -0.22063,-0.62798 -2.29239,0.84956 -4.6039,3.28341 -3.16788,3.33555 -5.18768,4.57124 -8.20274,5.01833 -2.65604,0.39385 -5.2077,1.74374 -7.59445,4.01764 -1.97694,1.88347 -5.70506,4.0597 -8.28471,4.83606 -3.55397,1.06959 -7.09947,3.64913 -14.63457,10.64745 C 508.81921,506.21316 506,508.39472 506,506.81942 c 0,-0.48907 4.76257,-5.34893 10.58348,-10.79969 7.28717,-6.82377 11.97741,-10.40746 15.059,-11.50617 7.37008,-2.62773 20.51723,-16.95149 17.35363,-18.9067 -1.03937,-0.64237 -0.96968,-1.60638 0.35557,-4.91852 2.2931,-5.73102 2.02883,-7.22617 -0.56187,-3.17882 -2.44928,3.82643 -2.71218,3.56872 -4.80918,-4.71422 l -1.09216,-4.31396 -1.94424,2.47169 C 539.8749,452.31246 539,453.90041 539,454.48181 c 0,0.58139 -1.00395,1.59438 -2.231,2.25108 -1.22705,0.6567 -2.97374,2.13503 -3.88154,3.28518 -5.82109,7.37518 -5.43744,7.11726 -8.50665,5.71884 -2.57269,-1.1722 -2.99073,-1.0947 -4.23944,0.78596 -0.76192,1.14751 -2.00543,2.08639 -2.76334,2.08639 -0.75792,0 -1.37803,0.45 -1.37803,1 0,1.56355 -2.72007,1.17186 -3.35516,-0.48314 -1.01376,-2.64184 -3.42061,-0.497 -5.67485,5.05708 -1.21125,2.98433 -2.56969,5.42606 -3.01875,5.42606 -1.23736,0 -2.313,4.08431 -2.07842,7.89202 0.14242,2.31184 -0.48092,4.12637 -1.95741,5.69802 l -2.16638,2.306 2.53129,4.31932 c 4.53877,7.74483 1.67948,11.94042 -13.53032,19.85374 -4.2625,2.21768 -7.75,4.12187 -7.75,4.23152 0,0.10966 14.7375,0.19938 32.75,0.19938 22.48697,0 39.36118,0.54841 53.84671,1.75 11.60319,0.9625 24.26829,1.75 28.14466,1.75 8.36346,0 16.93167,2.44046 30.01974,8.55044 l 9.26111,4.32342 28.1697,0.0772 c 15.49333,0.0425 28.38833,0.29585 28.65555,0.56307 0.26723,0.26722 1.79381,0.48586 3.3924,0.48586 2.73544,0 2.21053,-0.73938 -8.91667,-12.56009 z M 760,539.59065 c 8.18996,-0.85793 12.9237,-1.89211 16.44634,-3.59303 2.72049,-1.3136 5.59517,-2.38836 6.38817,-2.38836 0.79301,0 3.30849,-1.72063 5.58996,-3.82362 3.38685,-3.12189 5.76117,-4.22817 12.93729,-6.028 12.53641,-3.14422 27.39148,-8.00559 32.63824,-10.68097 4.19572,-2.13945 14.00817,-10.75324 13.99341,-12.28403 -0.004,-0.37586 -0.89481,-2.03338 -1.98041,-3.68338 -2.00455,-3.0467 -3.81586,-4.37617 -26.64498,-19.55685 -7.07741,-4.70626 -14.50336,-9.99458 -16.5021,-11.75181 C 798.64017,462.08546 793,460.43565 793,462.91471 c 0,0.8555 -1.0125,1.69925 -2.25,1.875 -1.44596,0.20536 -2.36419,1.12359 -2.56955,2.56955 -0.17575,1.2375 -0.87863,2.25 -1.56194,2.25 -0.68332,0 -2.24049,1.35 -3.46039,3 -1.2199,1.65 -2.95925,3 -3.86523,3 -0.90598,0 -2.85063,1.44147 -4.32144,3.20326 l -2.6742,3.20326 -6.09572,-2.73559 c -4.1083,-1.8437 -6.92553,-2.52732 -8.6409,-2.09679 l -2.54519,0.6388 2.10137,2.95111 c 3.2447,4.55676 1.45466,4.52091 -2.90125,-0.0581 -3.19529,-3.35896 -4.57652,-4.10595 -7.59211,-4.10595 -4.88358,0 -5.47928,1.90269 -2.55223,8.15205 2.88385,6.15715 2.77306,8.35727 -0.59803,11.87594 -2.33709,2.43939 -2.55367,3.25254 -1.94585,7.30573 0.56131,3.74311 0.30641,5.09102 -1.4217,7.51793 -2.68767,3.77448 -2.67152,3.86515 0.82526,4.63317 5.68695,1.24907 6.10376,4.45888 1.15999,8.93293 l -2.09436,1.89537 3.50173,2.37949 c 1.92596,1.30872 3.50174,3.01537 3.50174,3.79255 0,0.77718 -1.6875,2.64863 -3.75,4.15878 -7.10472,5.20202 -8.60155,4.99314 16.75,2.33745 z M 257.5,528.08926 c 7.78238,-1.87913 16.4539,-1.8589 25.73285,0.06 l 7.44678,1.54002 9.41018,-3.40654 c 5.17561,-1.87359 14.13519,-5.44026 19.91019,-7.92592 5.775,-2.48567 12.76884,-5.25079 15.54186,-6.14473 2.77303,-0.89393 7.49803,-3.48284 10.5,-5.75314 3.00198,-2.27029 11.08314,-6.89019 17.95814,-10.26644 17.28523,-8.48862 42.23253,-23.95628 48.89681,-30.31666 l 2.39681,-2.28751 -6.39681,2.39124 c -3.51825,1.31518 -7.97181,2.71664 -9.89681,3.11435 -1.925,0.39771 -6.34771,2.06615 -9.82824,3.70763 -7.24381,3.41632 -9.20084,2.89468 -4.36194,-1.16264 3.19166,-2.67615 3.21843,-2.75775 0.75,-2.28588 -1.4079,0.26917 -2.55982,0.17326 -2.55982,-0.21311 0,-1.17922 11.9336,-12.53067 13.17329,-12.53067 0.63803,0 0.89909,-0.26096 0.58014,-0.5799 -0.31895,-0.31895 -1.81152,0.22708 -3.31683,1.2134 -1.50531,0.98632 -3.3689,1.88606 -4.14131,1.99942 -1.73335,0.25441 -24.45185,11.72441 -37.29529,18.82946 -5.225,2.8905 -12.875,6.7662 -17,8.61267 -4.125,1.84648 -11.87388,5.94548 -17.21974,9.10891 -5.34586,3.16342 -11.90219,6.85761 -14.56963,8.2093 -2.66744,1.3517 -8.97638,4.97157 -14.01987,8.04417 -6.1298,3.73439 -11.37509,6.09793 -15.82115,7.12904 -3.65813,0.84838 -8.95031,2.70814 -11.76038,4.13279 -2.81008,1.42466 -7.35923,3.39226 -10.10923,4.37245 -6.30627,2.24776 -2.64886,2.49664 6,0.40829 z M 430.66544,494.8189 c 32.42899,-22.59817 42.5032,-30.8286 46.02976,-37.60542 1.96609,-3.77813 1.07705,-3.41688 -9.44298,3.83702 -4.53628,3.12791 -10.3596,8.13323 -12.94072,11.12293 -2.58112,2.9897 -5.52947,5.43582 -6.55189,5.43582 -3.08328,0 -7.4958,2.78758 -10.36313,6.54683 -2.75213,3.60823 -6.14173,6.04126 -7.09223,5.09075 -0.28846,-0.28845 1.85272,-3.03798 4.75817,-6.11006 3.71812,-3.93137 6.49022,-5.91003 9.36011,-6.68104 3.21384,-0.86342 5.2274,-2.49876 9.50662,-7.72096 2.98603,-3.64404 4.47457,-5.79184 3.30786,-4.7729 -3.41077,2.97879 -5.13949,1.45895 -1.9586,-1.72194 5.04078,-5.04078 3.16053,-6.19838 -2.87837,-1.7721 -5.15019,3.77489 -41.79581,40.03604 -43.22998,42.77642 -0.99085,1.89331 0.002,1.64906 8.77174,-2.15754 5.43899,-2.3609 11.16463,-5.18141 12.72364,-6.26781 z M 552.4552,473.98807 C 553.87563,473.443 557,468.72531 557,467.12558 c 0,-0.32065 -1.575,0.992 -3.5,2.917 -4.35005,4.35006 -4.60466,5.31154 -1.0448,3.94549 z M 849,468.20708 c 0,-0.2212 -1.35,-0.87279 -3,-1.44799 -1.65,-0.57519 -3,-0.65221 -3,-0.17114 0,0.48106 0.7875,1.08045 1.75,1.33197 2.44866,0.63991 4.25,0.76161 4.25,0.28716 z m -454,-4.03939 c 0,-0.20416 -0.9,-0.13585 -2,0.15181 -1.1,0.28766 -2,0.93636 -2,1.44157 0,0.50746 0.89508,0.43952 2,-0.15182 1.1,-0.5887 2,-1.23741 2,-1.44156 z m 28.69552,-1.93572 c 4.51178,-2.50216 7.08954,-5.17099 6.02386,-6.23668 -0.4451,-0.4451 -13.40187,8.29121 -14.19149,9.56884 -0.80841,1.30803 1.49539,0.36814 8.16763,-3.33216 z m 416.60116,1.98031 c -0.98817,-1.31833 -2.0387,-2.25078 -2.3345,-2.07211 -0.2958,0.17866 -3.3333,-1.16876 -6.75,-2.99427 C 827.79548,457.32039 825,456.06298 825,456.35167 c 0,1.2217 5.86837,5.57811 10.5,7.79472 6.31985,3.02455 7.02162,3.03419 4.79668,0.0659 z m -327.61357,-0.79053 c -0.31922,-0.79773 -0.55618,-0.56078 -0.60416,0.60417 -0.0434,1.05416 0.19293,1.64479 0.52522,1.3125 0.33229,-0.33229 0.36781,-1.1948 0.0789,-1.91667 z m 67.62653,-0.5625 c 1.03302,-1.81155 1.7986,-8.70188 0.86111,-7.75 -1.39429,1.41569 -3.1855,8.5 -2.14916,8.5 0.47321,0 1.05283,-0.3375 1.28805,-0.75 z m -50.76097,-3.71052 c 1.02499,-1.90329 1.54871,-3.77544 1.16382,-4.16033 -0.99426,-0.99425 -4.71249,3.56142 -4.71249,5.77386 0,2.87 1.50189,2.18711 3.54867,-1.61353 z m 34.9361,-0.38804 C 563.72933,458.00525 562,459.81388 562,461.3594 c 0,1.36496 0.23214,1.31464 1.41824,-0.30745 0.78003,-1.06675 1.25997,-2.09782 1.06653,-2.29126 z m -50.80166,0.66106 c -0.31922,-0.79773 -0.55618,-0.56078 -0.60416,0.60417 -0.0434,1.05416 0.19293,1.64479 0.52522,1.3125 0.33229,-0.33229 0.36781,-1.1948 0.0789,-1.91667 z M 596,459.05023 c 0,-1.45136 -0.43284,-2.2915 -1,-1.94098 -0.55,0.33992 -1,1.49148 -1,2.55902 0,1.06754 0.45,1.94098 1,1.94098 0.55,0 1,-1.15156 1,-2.55902 z m 209,0.55902 c 0,-0.55 -0.45,-1 -1,-1 -0.55,0 -1,0.45 -1,1 0,0.55 0.45,1 1,1 0.55,0 1,-0.45 1,-1 z m -401.47354,-2.80687 c -0.30789,-0.30789 -1.11479,-6.4e-4 -1.79313,0.68278 -0.98026,0.98762 -0.8654,1.10248 0.5598,0.5598 0.98622,-0.37553 1.54122,-0.93469 1.23333,-1.24258 z M 818,457.60925 c 0,-0.55 -0.47656,-1 -1.05902,-1 -0.58246,0 -0.7809,0.45 -0.44098,1 0.33992,0.55 0.81648,1 1.05902,1 0.24254,0 0.44098,-0.45 0.44098,-1 z m -376.87244,-1.75 c 1.24387,-1.58606 1.2085,-1.62143 -0.37756,-0.37756 -1.66575,1.30637 -2.19548,2.12756 -1.37244,2.12756 0.20765,0 0.99515,-0.7875 1.75,-1.75 z m 68.67931,-0.77646 c -0.30789,-0.30789 -0.86705,0.24711 -1.24258,1.23333 -0.54268,1.4252 -0.42782,1.54006 0.5598,0.5598 0.68342,-0.67834 0.99067,-1.48524 0.68278,-1.79313 z m -101.40669,-1.074 c 0.44505,-1.15978 0.16358,-1.23644 -1.42269,-0.3875 -1.08762,0.58208 -1.97749,1.47837 -1.97749,1.99176 0,1.37766 2.75464,0.078 3.40018,-1.60426 z m 146.99283,1.01867 c 0.80555,-2.09921 0.76909,-2.41821 -0.27638,-2.41821 -0.48585,0 -1.11872,0.9 -1.40638,2 -0.61756,2.36157 0.80167,2.71429 1.68276,0.41821 z m 21.0252,0.9748 C 577.2882,455.66842 578,454.7646 578,453.99379 c 0,-1.15116 -0.35723,-1.17839 -2,-0.15247 -3.03394,1.89473 -2.74733,3.37567 0.41821,2.16094 z m -131.68332,-6.2364 c 3.42919,-2.48609 6.01945,-4.7356 5.75613,-4.99892 -0.26332,-0.26332 -1.26902,0.17539 -2.23489,0.9749 -0.96587,0.79952 -2.97036,2.06035 -4.45442,2.80184 -1.48405,0.7415 -3.95905,2.70419 -5.5,4.36153 -3.35458,3.608 -1.88373,2.89023 6.43318,-3.13935 z M 614,451.55023 c 0,-1.61754 -0.39754,-2.94098 -0.88342,-2.94098 -1.00246,0 -2.18395,5.08197 -1.45551,6.26061 0.9473,1.53277 2.33893,-0.44235 2.33893,-3.31963 z m -159.75,-4.16202 c 2.0625,-1.62086 3.75,-3.35623 3.75,-3.85638 0,-0.82433 -3.52987,1.56691 -11.58662,7.84911 l -2.91338,2.27169 3.5,-1.65871 c 1.925,-0.91228 5.1875,-2.98486 7.25,-4.60571 z m 70.91667,-2.2234 c 0,-2.59723 -0.22604,-4.94827 -0.50232,-5.22454 -1.02057,-1.02057 -2.92346,4.15074 -3.34233,9.08314 l -0.43189,5.08584 2.13827,-2.11111 c 1.58444,-1.56432 2.13827,-3.33419 2.13827,-6.83333 z m 47.27663,6.22193 c 2.08559,-2.97759 1.96379,-4.06572 -0.31839,-2.84434 -1.93527,1.03573 -3.59646,5.06685 -2.08799,5.06685 0.46732,0 1.55019,-1.00013 2.40638,-2.22251 z m 37.30333,-5.77749 c -0.43149,-2.362 -2.13078,-0.91886 -3.48157,2.95676 -1.68865,4.84498 -1.56492,4.99401 1.28123,1.54324 1.3609,-1.65 2.35106,-3.675 2.20034,-4.5 z M 802,451.23169 c 0,-0.20765 -0.7875,-0.99515 -1.75,-1.75 -1.58606,-1.24387 -1.62143,-1.2085 -0.37756,0.37756 1.30637,1.66575 2.12756,2.19548 2.12756,1.37244 z m -381,-1.62244 c 0.825,-0.53316 1.05,-0.96937 0.5,-0.96937 -0.55,0 -1.675,0.43621 -2.5,0.96937 -0.825,0.53316 -1.05,0.96937 -0.5,0.96937 0.55,0 1.675,-0.43621 2.5,-0.96937 z m 212.68311,-1.1875 c -0.31922,-0.79773 -0.55618,-0.56078 -0.60416,0.60417 -0.0434,1.05416 0.19293,1.64479 0.52522,1.3125 0.33229,-0.33229 0.36781,-1.1948 0.0789,-1.91667 z m -206.15665,-3.61937 c -0.30789,-0.30789 -1.11479,-6.4e-4 -1.79313,0.68278 -0.98026,0.98762 -0.8654,1.10248 0.5598,0.5598 0.98622,-0.37553 1.54122,-0.93469 1.23333,-1.24258 z m 91.04497,-1.19313 c 0,-2.13559 -1.05487,-2.64483 -2.07143,-1 -0.6742,1.09087 0.18156,3 1.34473,3 0.39968,0 0.7267,-0.9 0.7267,-2 z m 274.01879,0.0997 c -1.73377,-1.9158 -5.59175,-3.47328 -5.58843,-2.25607 0.002,0.74175 5.01605,3.92482 6.4032,4.06495 0.49774,0.0503 0.1311,-0.76371 -0.81477,-1.80888 z M 530,440.66827 c 0,-0.51754 -0.45,-1.2191 -1,-1.55902 -0.55,-0.33992 -1,0.0835 -1,0.94098 0,0.85746 0.45,1.55902 1,1.55902 0.55,0 1,-0.42344 1,-0.94098 z m 403,86.00228 c -0.825,-0.48284 -8.42806,-3.19529 -16.89569,-6.02766 -8.46763,-2.83238 -20.21044,-7.61041 -26.09514,-10.61784 -8.99058,-4.59472 -11.97304,-5.61331 -18.67364,-6.37753 C 861.65862,502.54384 858,501.68055 858,500.50084 c 0,-1.16256 0.24466,-1.15043 12.25658,0.60763 8.8141,1.29003 11.77831,2.26619 21.24342,6.99583 6.05,3.02314 17.3,7.57459 25,10.11432 15.06155,4.96785 19.5,6.88351 19.5,8.41631 0,1.18887 -1.00902,1.20085 -3,0.0356 z M 473.93909,329.13019 c -9.3127,-1.56919 -12.48571,-3.16883 -20.01411,-10.08991 -6.45797,-5.93699 -5.68906,-5.74339 -21.60871,-5.44084 -15.28688,0.29053 -26.68947,-3.80972 -32.15394,-11.56223 -1.70434,-2.41796 -4.57559,-5.04172 -6.38056,-5.83056 -2.87466,-1.25633 -2.99328,-1.44437 -0.95621,-1.51583 1.60849,-0.0564 4.38355,2.00853 9,6.697 4.2866,4.35348 8.10548,7.25993 10.67444,8.12404 2.2617,0.76076 10.99974,1.61749 20.10709,1.97143 l 16.10708,0.62596 6.63584,6.20916 c 7.77304,7.27323 12.41651,9.03864 26.19915,9.96071 10.32336,0.69064 19.43412,-0.60277 29.82965,-4.23475 7.61391,-2.66014 9.60441,-3.01834 8.03135,-1.44528 -1.7005,1.7005 -17.28276,5.93184 -25.75796,6.99454 -9.54158,1.19641 -9.91438,1.18765 -19.71311,-0.46344 z M 471,323.90302 c -2.86729,-1.04815 -6.15513,-4.80487 -9.19233,-10.50323 -2.35464,-4.41776 -4.0121,-6.19518 -7.22943,-7.75267 -6.14296,-2.97375 -12.05756,-3.45809 -19.89029,-1.62879 -3.74663,0.875 -8.51226,1.59092 -10.59028,1.59092 -5.38981,0 -14.82793,-5.05316 -21.25827,-11.38165 -3.25591,-3.20433 -6.75151,-5.65977 -8.6514,-6.07706 -4.27264,-0.93843 -4.21405,-2.98786 0.062,-2.16866 1.95794,0.37511 4.74952,2.20772 7.02184,4.6097 2.07452,2.19288 6.79952,6.06615 10.5,8.60727 l 6.72816,4.62021 8,-0.75351 c 4.4,-0.41443 12.05,-0.7874 17,-0.82883 11.74077,-0.0982 14.00065,1.12039 19.66003,10.60169 5.94095,9.953 9.04157,11.49504 19.67578,9.7854 4.21531,-0.67769 8.78919,-1.80566 10.16419,-2.5066 1.375,-0.70094 5.2,-1.85104 8.5,-2.55577 3.3,-0.70472 7.21515,-1.88227 8.70034,-2.61676 3.90827,-1.9328 5.85055,-1.56569 2.29966,0.43466 -2.82246,1.59 -11.97367,4.48916 -24.5,7.76175 -5.45831,1.42603 -14.12121,1.81429 -17,0.76193 z m 4.29408,-7.61985 c -1.76326,-0.64566 -3.78826,-1.79267 -4.5,-2.54892 -1.06712,-1.13385 -1.031,-1.27585 0.20592,-0.80968 6.67878,2.51709 12.85441,3.83342 16.00325,3.41107 2.0446,-0.27424 7.65121,-2.36754 12.45915,-4.65179 4.80794,-2.28425 11.16644,-4.78474 14.13,-5.55665 2.96357,-0.77191 8.10342,-2.39346 11.4219,-3.60343 3.31847,-1.20998 6.29645,-1.9371 6.61773,-1.61582 0.83701,0.837 -5.71912,3.41292 -16.13203,6.33831 -4.95,1.39064 -12.39111,4.29122 -16.53581,6.44572 -6.58643,3.42376 -8.35019,3.90769 -14,3.84119 -3.5553,-0.0418 -7.90686,-0.60434 -9.67011,-1.25 z M 467.75,306.91992 c -0.9625,-0.25152 -1.75,-0.92247 -1.75,-1.49098 0,-0.56852 0.7118,-0.76052 1.58179,-0.42668 0.86998,0.33385 1.99498,0.60699 2.5,0.60699 0.50501,0 0.91821,0.45 0.91821,1 0,1.03987 -0.33653,1.07204 -3.25,0.31067 z m -14.41464,-6.95957 c -7.07299,-4.82506 -11.35106,-5.65325 -18.8699,-3.65303 C 428.2916,297.94974 421,297.5107 421,295.49655 c 0,-0.60577 0.91646,-0.72995 2.25,-0.30487 3.00946,0.9593 7.81337,0.72417 11.15397,-0.54592 6.68615,-2.54207 16.26259,0.0349 24.17817,6.50612 4.54188,3.71313 0.64596,2.82838 -5.24678,-1.19153 z m -77.23619,-8.90539 c -3.17744,-1.37905 -6.40835,-4.46986 -5.55964,-5.31857 0.2068,-0.2068 1.83706,0.8534 3.6228,2.356 2.83245,2.38334 3.88224,2.67095 8.22586,2.25358 4.40101,-0.42288 4.7614,-0.31927 3.1043,0.89243 -2.3762,1.73752 -5.08936,1.68453 -9.39332,-0.18344 z M 359.5,279.0456 c -1.65,-0.85324 -4.45839,-3.04339 -6.24086,-4.86701 -3.31967,-3.39632 -6.70653,-4.56934 -13.19301,-4.56934 -2.02613,0 -4.55738,-0.6983 -5.625,-1.55178 -1.863,-1.48932 -1.8405,-1.52275 0.55887,-0.83052 1.375,0.3967 4.3,0.80901 6.5,0.91626 2.2,0.10725 4.96383,0.25598 6.14185,0.33052 1.17801,0.0745 4.32801,2.09294 7,4.48534 2.67198,2.3924 6.20815,5.07438 7.85815,5.95996 1.65,0.88558 2.325,1.62539 1.5,1.64402 -0.825,0.0186 -2.85,-0.66422 -4.5,-1.51745 z"
       id="path2" />
  </g>
</svg>
